<?xml version="1.0" standalone="no"?>
<!DOCTYPE svg PUBLIC "-//W3C//DTD SVG 20010904//EN"
 "http://www.w3.org/TR/2001/REC-SVG-20010904/DTD/svg10.dtd">
<svg version="1.0" xmlns="http://www.w3.org/2000/svg"
 width="1024.000000pt" height="1024.000000pt" viewBox="0 0 1024.000000 1024.000000"
 preserveAspectRatio="xMidYMid meet">

<g transform="translate(0.000000,1024.000000) scale(0.100000,-0.100000)"
fill="#000000" stroke="none">
<path d="M0 5120 l0 -5120 5120 0 5120 0 0 5120 0 5120 -5120 0 -5120 0 0
-5120z m5916 4428 c-8 -42 -24 -73 -47 -93 l-24 -20 17 20 c9 11 20 34 24 50
12 54 39 91 30 43z m-588 5 c-10 -2 -26 -2 -35 0 -10 3 -2 5 17 5 19 0 27 -2
18 -5z m399 -38 c-45 -17 -154 -31 -122 -16 30 14 96 28 130 29 29 1 29 0 -8
-13z m-672 -5 c-3 -5 0 -10 7 -10 7 0 -2 -9 -20 -20 -38 -23 -54 -27 -26 -5
18 14 17 14 -16 9 l-35 -5 38 15 c21 8 41 17 44 20 10 10 15 7 8 -4z m741 -5
c-11 -8 -27 -15 -35 -15 -9 1 -2 7 14 15 39 18 44 18 21 0z m-386 -18 c-36 -5
-125 -25 -199 -43 -74 -19 -136 -33 -138 -31 -2 2 23 16 56 30 32 14 62 30 66
36 3 6 14 11 23 11 13 0 13 -2 -4 -14 -14 -11 -3 -10 41 4 40 12 87 19 140 18
l80 -1 -65 -10z m330 -2 c0 -13 -214 -68 -280 -71 -41 -3 -93 -6 -115 -9 -22
-2 -51 -5 -65 -5 l-25 -2 25 -7 c14 -5 41 -6 60 -5 35 4 35 4 5 -5 -16 -5 -39
-12 -50 -16 -16 -5 -17 -5 -5 4 12 9 10 11 -12 11 -15 0 -29 -4 -32 -8 -3 -5
-19 -7 -36 -4 -19 3 -30 0 -30 -8 0 -7 -7 -10 -16 -6 -9 4 -24 1 -33 -6 -14
-11 -14 -10 -1 4 29 31 188 75 275 76 76 2 150 15 260 46 54 15 75 19 75 11z
m457 -76 c55 -60 103 -214 88 -284 -8 -37 -9 -34 -16 45 -4 47 -16 108 -28
135 -11 28 -20 46 -20 40 -1 -13 -35 36 -38 55 -1 8 -13 23 -27 32 -51 38 -69
58 -26 30 25 -17 55 -40 67 -53z m-1367 53 c0 -5 -35 -25 -77 -45 -101 -47
-136 -60 -128 -47 3 6 12 10 18 10 7 0 37 15 67 32 30 18 69 38 85 44 17 6 31
12 33 13 1 0 2 -3 2 -7z m149 4 c-2 -2 -17 -6 -34 -10 -22 -5 -26 -4 -15 4 14
9 59 15 49 6z m948 -31 c-15 -14 -36 -25 -45 -25 -9 1 -3 7 14 14 18 8 35 19
38 25 4 6 10 11 14 11 4 0 -6 -12 -21 -25z m-982 -1 c-11 -8 -26 -12 -33 -9
-8 3 -20 1 -26 -3 -6 -5 -24 -12 -41 -15 -23 -5 -20 -2 13 13 24 11 48 18 53
14 5 -3 17 0 26 5 26 15 31 13 8 -5z m1395 -10 c20 -4 39 -18 34 -25 -10 -16
-29 -9 -48 18 -12 16 -14 23 -5 17 8 -5 16 -9 19 -10z m-1650 -4 c-8 -5 -22
-9 -30 -9 -10 0 -8 3 5 9 27 12 43 12 25 0z m-133 -6 c-3 -3 -12 -4 -19 -1 -8
3 -5 6 6 6 11 1 17 -2 13 -5z m82 -8 c-12 -10 -49 -16 -49 -7 0 5 10 11 23 13
22 4 34 1 26 -6z m351 8 c0 -8 -131 -66 -137 -60 -3 2 17 14 44 25 26 11 55
25 63 30 17 11 30 13 30 5z m170 -14 c-14 -4 -32 -8 -40 -9 -13 -1 -13 0 0 9
8 5 26 9 40 9 l25 -1 -25 -8z m520 6 c0 -2 -7 -6 -15 -10 -8 -3 -15 -1 -15 4
0 6 7 10 15 10 8 0 15 -2 15 -4z m-1101 -19 c-19 -13 -83 -37 -87 -33 -3 3 15
14 39 25 24 11 46 18 48 15 2 -2 2 -5 0 -7z m495 5 c9 5 20 7 23 4 11 -11 -5
-17 -53 -21 -27 -2 -78 -13 -114 -25 -68 -22 -178 -33 -220 -20 -19 5 -10 9
42 15 37 4 78 5 90 2 13 -3 59 7 103 22 44 15 87 24 95 20 9 -4 24 -3 34 3z
m526 -15 c-61 -29 -119 -83 -141 -132 -10 -22 -19 -32 -19 -23 -1 70 101 171
178 175 23 2 20 -1 -18 -20z m213 16 c-7 -2 -21 -2 -30 0 -10 3 -4 5 12 5 17
0 24 -2 18 -5z m399 -103 c25 -50 38 -170 19 -170 -10 0 -16 46 -13 90 2 27
-20 84 -55 140 l-34 55 31 -35 c17 -19 40 -55 52 -80z m-723 73 c-44 -37 -79
-115 -73 -162 6 -39 51 -170 65 -185 5 -6 9 -17 9 -25 0 -11 -4 -10 -15 5 -17
20 -17 23 -1 -78 3 -16 1 -28 -3 -28 -4 0 -13 30 -20 68 -7 37 -19 90 -26 117
-27 98 -29 159 -8 206 19 43 77 109 96 109 5 0 -6 -12 -24 -27z m-1049 2 c0
-2 -10 -10 -22 -16 -21 -11 -22 -11 -9 4 13 16 31 23 31 12z m1267 -1 c-3 -3
-12 -4 -19 -1 -8 3 -5 6 6 6 11 1 17 -2 13 -5z m-647 -33 c0 -5 -15 -11 -32
-14 -18 -2 -73 -12 -123 -21 -77 -14 -100 -14 -160 -3 l-70 12 95 2 c52 1 133
9 180 16 108 19 110 19 110 8z m-660 -5 c0 -3 -4 -8 -10 -11 -5 -3 -10 -1 -10
4 0 6 5 11 10 11 6 0 10 -2 10 -4z m943 -8 c9 2 17 -1 17 -7 0 -6 -7 -7 -17
-4 -11 4 -14 3 -9 -5 12 -19 1 -14 -20 10 -12 13 -13 18 -4 12 8 -4 23 -7 33
-6z m-175 -15 c-10 -2 -26 -2 -35 0 -10 3 -2 5 17 5 19 0 27 -2 18 -5z m101
-21 c14 -10 27 -25 29 -33 3 -8 -5 -5 -20 9 -13 12 -27 20 -30 17 -7 -7 -58
16 -58 26 0 13 53 0 79 -19z m-81 -7 c29 -9 57 -13 62 -10 10 6 25 -13 16 -22
-3 -3 -18 0 -33 6 -16 6 -62 18 -103 25 -62 11 -68 14 -34 15 22 1 64 -6 92
-14z m-490 -13 c26 -10 66 -17 87 -16 l40 3 -39 -8 c-29 -6 -52 -3 -95 12 -31
11 -58 21 -60 23 -11 10 23 2 67 -14z m695 3 c-3 -9 -8 -14 -10 -11 -3 3 -2 9
2 15 9 16 15 13 8 -4z m808 -11 c5 -15 8 -29 5 -31 -2 -2 -8 10 -14 26 -13 38
-5 41 9 5z m-316 -5 c11 -4 -9 -5 -45 -2 -63 5 -88 0 -195 -42 -11 -4 -3 4 17
19 59 42 153 52 223 25z m-1232 -33 c21 -9 35 -21 32 -26 -3 -6 -1 -10 5 -10
6 0 26 -11 44 -25 23 -18 35 -22 43 -14 8 8 11 6 10 -7 -2 -15 5 -19 33 -20
41 0 81 -16 99 -37 11 -14 9 -16 -8 -14 -11 0 -18 5 -15 9 3 4 -9 14 -26 23
-40 21 -38 11 10 -41 22 -24 40 -49 40 -56 -1 -8 -7 -5 -16 7 -8 11 -20 19
-25 18 -5 -2 -9 1 -9 7 0 9 -142 120 -154 120 -15 0 -96 57 -90 63 4 4 3 7 -2
8 -41 4 -55 7 -61 13 -12 12 48 0 90 -18z m470 0 c26 -7 44 -15 41 -19 -4 -4
-2 -7 4 -7 6 0 40 -18 74 -40 35 -22 58 -40 51 -40 -6 0 -14 4 -18 9 -3 6 -13
9 -23 9 -9 -1 -51 13 -92 31 -41 17 -65 29 -52 26 69 -16 69 -16 42 -4 -14 7
-59 23 -100 36 -71 22 -72 23 -25 17 28 -3 72 -11 98 -18z m83 8 c19 -9 37
-21 41 -27 3 -5 -7 -3 -23 5 -16 9 -40 21 -54 26 -14 6 -19 11 -12 11 8 1 29
-6 48 -15z m165 -15 c-5 -13 -10 -19 -10 -12 -1 15 10 45 15 40 3 -2 0 -15 -5
-28z m484 23 c13 -4 0 -9 -35 -13 -57 -7 -94 -21 -170 -66 l-45 -26 30 29 c69
67 151 96 220 76z m-1505 -40 c0 -9 -4 -24 -10 -32 -6 -10 -8 -4 -7 22 2 35
17 44 17 10z m653 21 c-7 -2 -21 -2 -30 0 -10 3 -4 5 12 5 17 0 24 -2 18 -5z
m1364 -45 c-2 -13 -4 -5 -4 17 -1 22 1 32 4 23 2 -10 2 -28 0 -40z m-2142 23
c3 -5 1 -12 -4 -15 -5 -3 -11 1 -15 9 -6 16 9 21 19 6z m515 -11 c0 -5 -2 -10
-4 -10 -3 0 -8 5 -11 10 -3 6 -1 10 4 10 6 0 11 -4 11 -10z m145 0 c7 -12 -2
-12 -30 0 -19 8 -19 9 2 9 12 1 25 -3 28 -9z m596 -78 c8 -18 17 -32 21 -32 5
0 8 -9 8 -19 0 -11 5 -23 10 -26 6 -3 10 -11 10 -17 0 -6 -10 2 -22 18 -26 32
-59 118 -57 149 1 13 4 9 8 -11 4 -17 14 -45 22 -62z m-124 46 c-3 -7 -5 -2
-5 12 0 14 2 19 5 13 2 -7 2 -19 0 -25z m-287 -8 c14 -10 32 -30 40 -45 7 -14
19 -24 26 -21 7 3 18 -3 26 -12 12 -15 11 -16 -4 -3 -20 15 -21 12 -18 -37 1
-21 -15 -68 -46 -132 -26 -55 -49 -98 -51 -96 -3 2 4 21 15 43 23 44 53 157
54 202 1 38 -42 96 -85 116 -23 11 -25 13 -7 9 14 -4 36 -15 50 -24z m-830 0
c6 -11 8 -20 6 -20 -3 0 -10 9 -16 20 -6 11 -8 20 -6 20 3 0 10 -9 16 -20z
m771 -26 c8 -10 -4 -5 -28 11 -24 15 -43 29 -43 32 0 8 57 -27 71 -43z m1564
12 c9 -19 15 -42 13 -52 -2 -10 -12 4 -25 35 -24 57 -13 71 12 17z m-1893 -40
c24 -24 51 -55 61 -70 10 -14 23 -26 29 -26 7 0 2 9 -10 20 -12 12 -22 25 -22
31 0 5 -21 33 -47 62 l-46 52 49 -52 c70 -73 108 -123 95 -123 -17 0 -13 -28
5 -38 15 -8 15 -12 0 -39 -8 -17 -29 -42 -45 -56 -16 -13 -28 -27 -25 -29 2
-3 -4 -11 -13 -19 -17 -13 -17 -13 -3 5 14 18 13 19 -6 14 -20 -5 -19 -1 12
52 39 68 55 106 47 114 -3 3 -12 1 -20 -6 -11 -9 -13 -8 -11 3 2 9 -7 15 -24
17 -22 3 -28 -1 -28 -15 0 -18 -49 -155 -49 -140 -1 5 8 40 20 78 12 38 19 79
16 89 -3 11 -1 18 4 14 5 -3 9 0 9 6 0 6 4 9 9 6 5 -4 7 3 4 14 -3 11 -26 39
-52 61 -25 23 -36 36 -24 30 13 -7 42 -31 65 -55z m1130 30 c-17 -19 -33 -48
-37 -65 -4 -17 -10 -31 -14 -31 -4 0 -8 -6 -8 -13 0 -20 -51 -95 -72 -107 -34
-18 -37 -11 -6 15 17 14 22 22 13 19 -28 -10 -21 5 7 16 15 6 27 20 31 37 9
38 41 91 78 131 40 43 46 41 8 -2z m635 2 c-3 -8 -6 -5 -6 6 -1 11 2 17 5 13
3 -3 4 -12 1 -19z m-1100 -10 c-3 -8 -6 -5 -6 6 -1 11 2 17 5 13 3 -3 4 -12 1
-19z m-764 -27 c-2 -6 0 -10 5 -8 4 1 8 -2 9 -6 1 -4 9 -15 18 -23 29 -30 11
-87 -41 -134 -20 -17 -23 -18 -11 -4 19 23 23 39 7 29 -16 -10 -12 11 5 25 27
22 15 95 -24 145 -16 19 -15 19 9 3 14 -9 24 -21 23 -27z m414 -34 c16 -32 12
-43 -13 -33 -9 4 -14 12 -10 22 3 8 2 12 -4 9 -6 -3 -10 2 -10 12 0 10 -8 30
-17 43 l-16 25 27 -25 c15 -14 35 -38 43 -53z m68 53 c10 -11 16 -20 13 -20
-3 0 -13 9 -23 20 -10 11 -16 20 -13 20 3 0 13 -9 23 -20z m1346 -31 c-5 -26
-9 -34 -10 -19 -1 27 9 73 15 67 2 -2 0 -23 -5 -48z m-871 -10 c12 -23 20 -43
18 -45 -3 -2 -14 17 -26 41 -27 56 -20 60 8 4z m970 31 c0 -5 -2 -10 -4 -10
-3 0 -8 5 -11 10 -3 6 -1 10 4 10 6 0 11 -4 11 -10z m-1459 -17 c13 -16 12
-17 -3 -4 -10 7 -18 15 -18 17 0 8 8 3 21 -13z m-581 -8 c7 -9 8 -15 2 -15 -5
0 -12 7 -16 15 -3 8 -4 15 -2 15 2 0 9 -7 16 -15z m-400 -5 c-8 -5 -19 -10
-25 -10 -5 0 -3 5 5 10 8 5 20 10 25 10 6 0 3 -5 -5 -10z m385 -70 c-7 -35
-31 -90 -41 -90 -2 0 2 13 11 30 19 37 19 73 -1 113 l-17 32 27 -25 c23 -21
26 -30 21 -60z m2052 58 c-3 -8 -6 -5 -6 6 -1 11 2 17 5 13 3 -3 4 -12 1 -19z
m-2372 -7 c-6 -5 -32 -20 -60 -35 -50 -26 -50 -27 -23 -2 15 13 24 26 21 29
-3 3 4 3 15 0 11 -2 23 0 26 6 4 6 12 11 19 11 7 0 7 -3 2 -9z m1032 -33 c-3
-7 -5 -2 -5 12 0 14 2 19 5 13 2 -7 2 -19 0 -25z m1460 10 c-3 -8 -6 -5 -6 6
-1 11 2 17 5 13 3 -3 4 -12 1 -19z m-2090 -40 c-3 -7 -5 -2 -5 12 0 14 2 19 5
13 2 -7 2 -19 0 -25z m993 -4 c0 -3 -7 -1 -15 6 -8 7 -15 17 -15 22 0 5 7 3
15 -6 8 -8 15 -18 15 -22z m-870 11 c0 -8 -4 -15 -10 -15 -5 0 -7 7 -4 15 4 8
8 15 10 15 2 0 4 -7 4 -15z m619 13 c-2 -2 -17 -14 -34 -28 l-30 -25 24 28
c14 15 29 27 34 27 6 0 8 -1 6 -2z m299 -63 c0 -16 -2 -15 -8 5 -4 14 -8 34
-8 45 0 16 2 15 8 -5 4 -14 8 -34 8 -45z m-417 32 c-10 -9 -11 -8 -5 6 3 10 9
15 12 12 3 -3 0 -11 -7 -18z m109 -27 c-30 -27 -59 -49 -64 -50 -12 0 -6 6 59
59 69 57 72 51 5 -9z m160 -23 c0 -10 4 -16 8 -13 4 2 8 -4 9 -14 3 -40 -15
-28 -26 18 -21 82 -21 88 -6 57 8 -16 14 -38 15 -48z m-1097 39 c-31 -53 -36
-58 -45 -42 -11 19 21 66 39 59 7 -3 10 -10 6 -17z m36 -12 c-7 -16 -11 -33
-10 -39 1 -5 -3 -5 -9 1 -9 9 -8 20 5 44 20 39 30 34 14 -6z m2341 -8 c0 -6
-7 -2 -15 8 -8 11 -15 25 -15 30 0 6 7 2 15 -8 8 -11 15 -25 15 -30z m-1880
-18 c-11 -35 -33 -63 -65 -88 -11 -8 -3 5 18 29 20 24 40 60 43 80 4 20 9 30
11 24 3 -7 0 -27 -7 -45z m-631 21 c-6 -12 -9 -41 -7 -64 2 -34 0 -41 -9 -33
-7 6 -13 21 -13 35 0 23 25 83 36 83 2 0 0 -9 -7 -21z m76 -4 c0 -14 -6 -25
-12 -25 -14 0 -16 10 -7 34 9 24 19 19 19 -9z m119 -25 c-15 -28 -29 -48 -32
-46 -6 7 45 96 55 96 2 0 -8 -23 -23 -50z m-276 11 c-13 -15 -25 -27 -27 -25
-4 4 39 54 47 54 2 0 -7 -13 -20 -29z m118 -18 c-8 -33 -12 -40 -14 -24 -4 28
6 71 16 71 5 0 4 -21 -2 -47z m812 20 c-7 -16 -18 -33 -25 -39 -7 -6 -9 -15
-5 -19 4 -5 1 -5 -6 -1 -8 5 -22 0 -34 -11 -33 -28 -10 6 36 53 23 24 42 43
43 43 2 1 -3 -11 -9 -26z m686 -8 c-20 -31 -63 -55 -96 -54 -17 0 -11 5 21 18
25 10 54 29 65 43 27 32 33 28 10 -7z m-654 11 c0 -8 -12 -28 -26 -43 l-25
-28 23 42 c25 47 28 50 28 29z m49 -62 c-12 -33 -27 -66 -34 -74 -47 -58 -42
-136 12 -200 48 -56 67 -62 171 -49 119 14 118 13 139 29 17 14 17 13 -1 -7
-10 -12 -21 -22 -25 -21 -3 1 -14 -2 -23 -5 -10 -4 -26 -10 -35 -14 -30 -11
-154 -3 -182 11 -30 16 -73 61 -90 93 -23 45 -13 104 36 205 26 54 48 96 50
94 2 -2 -6 -30 -18 -62z m-139 52 c0 -2 -8 -10 -17 -17 -16 -13 -17 -12 -4 4
13 16 21 21 21 13z m-973 -43 c-3 -10 -5 -4 -5 12 0 17 2 24 5 18 2 -7 2 -21
0 -30z m320 2 c-15 -16 -19 -13 -11 9 3 9 10 13 15 10 5 -3 3 -11 -4 -19z
m1032 -60 c-12 -24 -38 -59 -58 -77 l-36 -33 31 35 c40 44 74 107 75 140 2 23
2 24 6 2 2 -12 -6 -42 -18 -67z m614 69 c28 -4 58 -16 71 -28 12 -11 45 -42
73 -67 28 -26 53 -55 56 -65 3 -11 8 -30 12 -42 l7 -24 -21 21 c-12 12 -21 26
-21 31 0 6 -5 10 -11 10 -6 0 -19 10 -28 21 -13 16 -23 20 -40 14 -18 -5 -20
-9 -10 -21 9 -11 7 -14 -14 -14 -16 0 -26 7 -30 20 -3 13 -14 20 -28 20 -12 0
-31 7 -41 17 -21 19 -55 40 -80 49 -9 3 -18 16 -20 29 -6 26 23 47 57 40 11
-2 42 -7 68 -11z m-1857 -81 c-31 -59 -51 -88 -41 -58 4 11 8 27 10 35 9 39
33 82 38 69 4 -9 6 -7 6 6 -2 31 3 42 8 18 2 -12 -7 -43 -21 -70z m1451 55
c-3 -7 -5 -2 -5 12 0 14 2 19 5 13 2 -7 2 -19 0 -25z m-629 5 c-2 -9 -11 -17
-21 -19 -18 -2 -18 -2 -1 17 21 23 26 24 22 2z m-416 -83 c4 0 6 14 6 30 -1
17 -6 30 -11 30 -6 0 -7 3 -4 6 4 4 14 1 23 -7 13 -11 18 -11 21 -1 7 20 22
13 16 -8 -3 -11 -11 -20 -18 -20 -14 0 -25 -27 -30 -73 -5 -40 -15 -47 -15 -9
0 16 -9 51 -20 77 -27 63 -25 82 3 23 12 -26 25 -48 29 -48z m318 70 c0 -5 -5
-10 -11 -10 -5 0 -7 5 -4 10 3 6 8 10 11 10 2 0 4 -4 4 -10z m480 -14 c0 -2
-8 -10 -17 -17 -16 -13 -17 -12 -4 4 13 16 21 21 21 13z m-186 -38 c-9 -18
-20 -44 -25 -58 l-7 -25 -1 25 c-1 23 32 90 44 90 3 0 -2 -15 -11 -32z m623
19 c0 -8 -6 -14 -14 -14 -9 0 -10 4 -2 14 6 7 12 13 14 13 1 0 2 -6 2 -13z
m-1324 -24 c6 -16 15 -31 20 -34 9 -7 12 -128 3 -137 -3 -3 -6 19 -6 50 0 39
-7 68 -25 102 -13 25 -20 46 -15 46 6 0 16 -12 23 -27z m168 0 c-12 -20 -14
-14 -5 12 4 9 9 14 11 11 3 -2 0 -13 -6 -23z m208 23 c-9 -8 -99 -44 -99 -40
0 6 81 43 94 44 5 0 7 -2 5 -4z m788 -33 c-23 -43 -64 -73 -142 -103 -41 -16
-28 -2 18 18 51 23 114 75 122 103 4 11 9 18 12 16 2 -3 -2 -18 -10 -34z m-57
8 c-5 -11 -15 -23 -21 -27 -6 -3 -3 5 6 20 20 30 30 35 15 7z m-1570 -21 c0
-5 -5 -10 -10 -10 -6 0 -24 -10 -40 -22 -16 -12 -32 -19 -36 -16 -3 3 14 18
38 32 49 30 48 29 48 16z m225 -89 c2 -33 0 -48 -6 -40 -7 11 -9 11 -9 1 0 -7
-4 -11 -8 -8 -11 6 -15 100 -6 129 7 21 7 21 16 -3 5 -14 11 -49 13 -79z m171
53 c15 -26 31 -63 35 -83 l7 -36 1 33 c0 18 -8 51 -20 73 -11 23 -16 38 -10
34 18 -10 38 -57 44 -99 9 -67 -16 -127 -77 -184 -62 -59 -83 -69 -39 -19 73
83 95 150 69 210 -8 21 -13 37 -10 37 3 0 -4 15 -15 34 -12 18 -21 36 -21 40
0 15 11 3 36 -40z m2412 11 c-3 -3 -9 2 -12 12 -6 14 -5 15 5 6 7 -7 10 -15 7
-18z m-1370 -37 c-20 -24 -50 -51 -67 -61 -41 -24 -40 -14 2 11 17 12 46 39
62 60 17 22 32 39 34 36 2 -2 -12 -23 -31 -46z m92 38 c0 -2 -8 -10 -17 -17
-16 -13 -17 -12 -4 4 13 16 21 21 21 13z m-265 -26 c3 -6 -1 -7 -9 -4 -18 7
-21 14 -7 14 6 0 13 -4 16 -10z m120 -30 c-16 -16 -38 -30 -49 -30 -17 0 -15
3 9 16 17 8 37 22 45 30 28 27 24 14 -5 -16z m-255 -15 c0 -7 14 -25 31 -39
24 -20 41 -26 80 -26 28 0 60 5 72 11 20 9 21 9 4 -4 -55 -45 -168 -15 -195
51 -7 19 -8 31 -2 27 5 -3 10 -12 10 -20z m-342 -11 c-1 -5 -9 -9 -16 -10 -10
-2 -11 1 -1 12 12 14 24 13 17 -2z m252 -7 c0 -30 -73 -86 -144 -111 -69 -26
-199 -49 -191 -36 3 4 58 24 122 45 70 22 133 49 154 66 20 16 39 26 43 22 3
-3 6 1 6 10 0 10 2 17 5 17 3 0 5 -6 5 -13z m255 -8 l40 -6 -36 -2 c-19 0 -44
6 -55 15 -10 8 -12 12 -4 8 8 -5 33 -11 55 -15z m392 -2 c7 -4 10 -14 7 -22
-6 -16 39 -99 73 -134 32 -33 29 -39 -14 -36 -51 3 -133 27 -110 32 9 3 14 9
11 15 -4 7 -2 8 5 4 6 -4 9 -12 6 -17 -3 -5 0 -6 8 -3 8 3 18 1 22 -5 3 -6 18
-10 33 -10 17 1 21 3 10 6 -10 2 -18 9 -18 14 0 6 -4 8 -8 5 -4 -2 -14 -1 -22
5 -13 7 -13 9 0 10 10 0 8 3 -5 9 -19 8 -19 9 -1 9 16 1 15 4 -7 21 -33 26
-65 25 -95 -2 -22 -21 -24 -21 -14 -3 12 24 -7 47 -29 34 -8 -4 -21 -4 -28 0
-10 7 -10 14 3 39 13 26 21 30 48 28 18 -2 41 0 51 3 24 9 59 8 74 -2z m-943
-9 c-3 -4 -11 -5 -19 -1 -21 7 -19 12 4 10 11 0 18 -5 15 -9z m113 -14 c-3 -3
-12 -4 -19 -1 -8 3 -5 6 6 6 11 1 17 -2 13 -5z m-749 -13 c10 6 2 -2 -16 -20
-18 -17 -37 -31 -44 -31 -6 0 -1 9 12 20 13 11 20 20 16 20 -4 0 -4 5 0 12 6
9 9 9 12 0 3 -10 8 -10 20 -1z m759 -7 c-3 -3 -12 -4 -19 -1 -8 3 -5 6 6 6 11
1 17 -2 13 -5z m1402 -13 c8 -6 10 -11 3 -15 -6 -4 -14 -27 -18 -51 -5 -40 -3
-51 22 -86 15 -23 53 -62 83 -87 31 -26 66 -56 79 -68 13 -12 49 -28 81 -37
31 -9 65 -25 76 -37 l18 -20 -39 17 c-30 14 -64 17 -154 17 -151 -2 -251 -31
-415 -121 -248 -137 -278 -153 -282 -149 -4 4 23 21 142 86 91 50 138 81 131
87 -3 3 -12 0 -20 -6 -12 -10 -13 -8 -9 10 4 14 2 20 -4 16 -6 -4 -13 3 -16
15 -4 12 -9 20 -12 16 -3 -3 -1 -16 4 -30 7 -19 6 -25 -4 -25 -8 0 -11 5 -8
10 4 6 -1 8 -11 4 -14 -6 -16 -3 -10 15 6 21 6 21 -10 5 -10 -9 -23 -17 -29
-17 -7 0 -6 4 3 10 12 8 11 10 -6 10 -29 0 -36 10 -22 29 7 9 2 7 -11 -4 -13
-11 -31 -19 -41 -17 -10 2 -20 -4 -24 -13 -3 -9 -10 -13 -16 -10 -17 11 -11
-7 8 -21 19 -15 36 -18 28 -6 -2 4 4 8 15 8 25 0 25 -23 -1 -31 -11 -4 -17
-11 -14 -17 4 -6 3 -8 -3 -5 -13 8 -119 -48 -116 -61 2 -6 -3 -9 -11 -6 -7 3
-19 -2 -26 -10 -7 -9 -16 -13 -21 -10 -8 5 -13 -10 -10 -29 1 -4 -8 -3 -19 3
-24 13 -27 35 -3 26 10 -4 14 -4 10 0 -10 10 52 46 65 38 7 -4 8 -2 4 4 -4 6
6 18 24 27 48 25 35 27 -27 3 -98 -36 -173 -91 -173 -125 0 -7 -6 -13 -14 -13
-7 0 -16 -12 -19 -27 -6 -33 2 -50 15 -32 8 11 9 11 5 -1 -5 -15 -10 -16 -38
-5 -12 5 -16 0 -15 -21 1 -15 8 -30 16 -32 13 -5 13 -3 1 11 -17 21 -8 22 13
1 9 -8 28 -17 43 -19 16 -2 30 -4 33 -5 3 -2 9 -2 14 -1 5 1 6 -7 3 -18 -7
-29 18 -46 101 -65 69 -17 131 -44 160 -73 6 -6 21 -15 32 -18 11 -3 20 -11
20 -16 0 -5 6 -9 13 -9 15 0 38 -42 43 -78 2 -19 -1 -23 -17 -19 -10 3 -19 1
-19 -5 0 -5 -6 -6 -12 -3 -7 4 -2 -3 11 -15 20 -17 22 -23 11 -33 -10 -9 -13
-9 -17 1 -3 6 -9 10 -14 6 -5 -3 -9 0 -9 6 0 7 -7 9 -16 6 -10 -4 -13 -2 -7 7
11 18 13 38 2 31 -5 -3 -7 -10 -4 -15 4 -5 -1 -9 -9 -9 -9 0 -16 4 -16 9 0 5
-16 11 -36 13 -32 4 -34 3 -18 -9 10 -7 24 -11 32 -8 7 2 11 1 8 -3 -8 -14
125 -75 137 -63 7 7 7 15 0 23 -5 7 -8 19 -7 26 1 6 2 17 3 23 0 5 6 7 11 4 6
-3 10 -1 10 4 0 6 -5 11 -12 11 -6 0 -9 2 -7 5 9 8 113 -26 137 -45 25 -20 21
-46 -5 -36 -11 4 -13 2 -9 -9 3 -8 1 -15 -4 -15 -6 0 -10 5 -10 10 0 7 -6 7
-17 2 -20 -10 -46 -5 -38 8 3 4 -3 10 -13 12 -12 3 -22 -3 -29 -19 -10 -21
-10 -24 3 -19 8 3 13 2 9 -3 -3 -5 29 -28 70 -50 41 -23 75 -44 75 -46 0 -3
-50 20 -112 51 -61 31 -125 58 -141 60 -17 2 -35 8 -41 14 -8 8 -5 9 9 5 16
-5 17 -5 5 3 -8 6 -19 7 -25 3 -14 -11 -45 -10 -45 2 0 5 -6 7 -14 4 -8 -3
-22 3 -31 13 -10 11 -22 17 -27 14 -5 -3 -18 2 -29 12 -10 9 -19 14 -19 11 0
-4 0 -10 0 -14 0 -5 5 -9 10 -9 6 -1 13 -3 18 -4 9 -4 24 -7 37 -9 6 -1 4 -5
-4 -10 -22 -14 -21 -37 0 -37 11 0 19 4 19 8 0 4 -5 8 -12 8 -6 0 -8 3 -5 6 4
4 18 -1 33 -11 18 -12 23 -20 15 -25 -15 -9 -69 -6 -95 5 -19 8 -19 9 0 17 13
6 9 7 -14 3 -20 -3 -31 -1 -27 5 3 6 4 10 0 10 -3 0 -14 -20 -25 -45 -11 -25
-22 -45 -25 -45 -3 0 -1 9 5 21 7 11 12 59 12 107 1 48 3 81 6 74 2 -6 9 -12
16 -12 16 0 169 -80 177 -93 4 -6 9 -6 12 0 4 6 -26 27 -65 48 -150 80 -392
250 -382 267 5 7 2 8 -5 4 -12 -8 -161 98 -161 114 0 15 178 174 219 196 22
12 38 24 36 26 -2 2 12 5 33 6 36 3 67 26 56 43 -3 5 3 6 13 2 10 -3 15 -3 11
2 -4 4 3 16 16 26 28 22 41 25 30 7 -6 -10 -5 -10 8 -1 8 7 19 9 23 5 5 -4 5
-1 1 6 -4 7 -13 10 -19 6 -7 -3 -1 4 12 16 13 11 31 18 38 16 8 -3 11 -2 8 3
-3 6 2 14 11 19 9 5 15 13 15 17 -1 5 6 10 16 11 10 2 19 8 21 13 2 6 9 11 17
11 7 0 18 6 24 14 13 15 54 29 46 16 -9 -15 33 -31 61 -24 22 6 26 4 21 -9 -4
-11 -2 -14 9 -10 7 3 14 8 14 12 0 4 14 8 31 8 22 0 34 -7 41 -22 13 -29 48
-23 40 7 -2 11 0 23 6 27 30 18 -4 137 -45 164 -17 11 -16 27 1 27 7 0 16 -9
19 -21 4 -16 10 -19 29 -14 13 4 32 15 42 26 17 15 18 22 8 43 -15 33 -1 41
37 22 37 -19 88 -11 96 15 7 20 49 26 74 10z m-1440 -5 c-12 -10 -60 -16 -54
-6 3 5 18 10 32 10 15 0 24 -2 22 -4z m-209 -13 c-8 -3 -32 -14 -52 -25 -21
-10 -38 -16 -38 -13 0 8 74 44 90 44 13 -1 13 -1 0 -6z m-270 -6 c0 -2 -10
-12 -22 -23 l-23 -19 19 23 c18 21 26 27 26 19z m-60 -31 c0 -2 -8 -10 -17
-17 -16 -13 -17 -12 -4 4 13 16 21 21 21 13z m-250 -29 c0 -2 -12 -14 -27 -28
l-28 -24 24 28 c23 25 31 32 31 24z m434 -32 c-14 -19 -29 -35 -31 -35 -5 0 7
18 36 53 26 31 23 18 -5 -18z m-224 22 c0 -2 -10 -12 -22 -23 l-23 -19 19 23
c18 21 26 27 26 19z m1447 -53 c-3 -3 -12 -4 -19 -1 -8 3 -5 6 6 6 11 1 17 -2
13 -5z m79 -6 c5 -7 3 -8 -5 -4 -7 5 -18 1 -25 -9 -9 -13 -19 -15 -37 -10
l-24 8 30 13 c38 16 52 17 61 2z m-1177 -28 c-13 -16 -24 -28 -27 -26 -6 6 29
56 39 56 5 0 0 -13 -12 -30z m-412 -12 c-3 -8 -6 -5 -6 6 -1 11 2 17 5 13 3
-3 4 -12 1 -19z m113 17 c0 -2 -10 -9 -22 -15 -22 -11 -22 -10 -4 4 21 17 26
19 26 11z m857 -11 c-3 -3 -12 -4 -19 -1 -8 3 -5 6 6 6 11 1 17 -2 13 -5z
m588 -15 c-3 -4 1 -10 7 -13 7 -3 0 -4 -17 0 -42 8 -50 19 -15 20 16 1 27 -2
25 -7z m-1021 -30 c-2 -4 -12 -6 -22 -4 -9 1 -33 -11 -52 -29 l-35 -31 33 36
c20 22 41 35 56 35 14 0 23 -3 20 -7z m-411 -6 c-7 -2 -21 -2 -30 0 -10 3 -4
5 12 5 17 0 24 -2 18 -5z m397 -28 c0 -2 -10 -9 -22 -15 -22 -11 -22 -10 -4 4
21 17 26 19 26 11z m1274 -10 c3 -8 1 -15 -4 -15 -6 0 -10 7 -10 15 0 8 2 15
4 15 2 0 6 -7 10 -15z m-1264 -25 c-8 -5 -21 -10 -29 -10 -8 0 -24 -8 -35 -17
-21 -18 -21 -18 -2 4 16 19 33 27 71 31 6 1 3 -3 -5 -8z m-699 -41 c-12 -10
-28 -16 -33 -13 -5 4 3 15 18 25 35 23 47 14 15 -12z m331 17 c53 -5 36 -12
-34 -14 -39 -1 -80 -4 -92 -8 -21 -6 -21 -6 -1 9 26 19 55 26 80 21 11 -3 32
-6 47 -8z m2118 -73 c-1 -5 -7 -35 -15 -68 -8 -33 -15 -107 -15 -165 0 -150
-22 -510 -32 -510 -7 0 -13 50 -9 74 5 24 -20 230 -29 241 -5 6 -7 14 -5 17
13 12 19 58 43 311 7 75 6 87 -8 87 -35 -1 -53 -28 -65 -100 -3 -19 -12 -40
-21 -46 -13 -11 -20 -115 -14 -214 l2 -25 7 25 7 25 18 -33 c21 -40 10 -87
-19 -87 -24 0 -45 -75 -45 -166 0 -56 4 -72 31 -113 34 -54 32 -67 -4 -39 -47
35 -69 79 -78 158 -4 42 -15 90 -24 107 -21 43 -19 63 8 80 21 15 22 23 25
173 3 120 1 160 -9 166 -10 6 -10 10 0 23 8 9 10 16 7 16 -4 0 -2 9 4 21 7 11
14 18 17 15 3 -2 17 0 32 6 14 6 53 14 86 18 86 10 105 11 105 3z m-1846 -74
c-49 -52 -94 -69 -176 -68 l-73 2 81 7 c84 7 129 26 169 70 10 11 20 20 23 20
3 0 -7 -14 -24 -31z m841 1 c3 -5 2 -10 -4 -10 -5 0 -13 5 -16 10 -3 6 -2 10
4 10 5 0 13 -4 16 -10z m1049 -95 c3 -8 1 -15 -4 -15 -6 0 -10 7 -10 15 0 8 2
15 4 15 2 0 6 -7 10 -15z m741 -91 c-13 -25 -32 -81 -41 -124 l-17 -79 -19 24
c-22 28 -23 45 -4 89 17 40 85 136 97 136 4 0 -3 -21 -16 -46z m181 29 c-29
-94 -32 -208 -11 -439 27 -295 81 -508 148 -581 11 -13 16 -23 10 -23 -15 0
-48 40 -71 85 -42 84 -113 358 -132 505 -19 157 -8 358 24 433 16 37 42 53 32
20z m-3459 1 c-3 -3 -12 -4 -19 -1 -8 3 -5 6 6 6 11 1 17 -2 13 -5z m1596 -11
c14 -17 14 -18 -9 -19 -21 -2 -23 0 -12 15 7 9 -1 5 -17 -9 -38 -32 -75 -53
-75 -42 0 5 12 15 26 22 14 8 30 22 35 32 12 23 31 23 52 1z m940 -122 c-3
-42 -7 -78 -9 -80 -2 -2 -4 45 -3 105 0 78 3 101 9 80 5 -16 6 -63 3 -105z
m-2336 113 c-3 -3 -12 -4 -19 -1 -8 3 -5 6 6 6 11 1 17 -2 13 -5z m68 -46
c101 -29 181 -75 250 -143 112 -110 180 -283 146 -370 l-8 -20 -6 20 c-3 11
-13 56 -22 100 -18 86 -58 169 -107 225 -17 19 -27 28 -23 20 4 -8 16 -24 26
-35 35 -40 69 -123 84 -210 16 -94 14 -125 -5 -54 -43 169 -117 295 -209 356
-121 81 -182 101 -329 110 -90 5 -105 4 -122 -12 -26 -23 -135 -69 -119 -49 6
8 17 14 23 15 6 0 29 9 51 20 38 18 30 19 -24 4 -14 -5 -21 -3 -17 3 15 24
190 51 291 44 28 -2 82 -12 120 -24z m54 25 c-3 -20 3 -23 24 -12 12 6 19 8
15 4 -4 -4 0 -14 10 -21 21 -16 36 -18 26 -3 -5 8 -1 8 14 0 30 -16 40 -13 18
4 -33 25 -7 17 63 -20 83 -44 138 -100 184 -185 31 -59 51 -132 72 -272 5 -33
10 -38 40 -44 19 -3 35 -10 35 -14 0 -5 -19 -3 -42 4 -43 12 -43 12 -50 68
-14 111 -73 255 -140 340 -34 43 -123 111 -139 106 -6 -2 7 -16 29 -31 69 -45
198 -224 178 -245 -3 -2 -12 12 -20 32 -22 54 -101 152 -158 197 -47 37 -61
44 -82 40 -4 -1 -14 3 -20 8 -7 6 -21 12 -32 14 -10 2 -32 8 -49 12 l-30 9 25
7 c14 4 26 7 28 8 1 1 1 -2 1 -6z m1266 -20 c-11 -7 -26 -13 -34 -13 -12 1
-10 6 8 20 12 11 28 17 34 13 6 -4 3 -11 -8 -20z m-535 -65 c63 -36 150 -84
192 -108 43 -24 76 -45 74 -47 -2 -3 -21 7 -43 20 -21 13 -63 37 -93 52 -68
34 -260 146 -260 152 0 5 -10 10 130 -69z m2234 -44 l-26 -39 7 35 c4 19 14
51 23 70 l16 35 4 -31 c2 -22 -5 -43 -24 -70z m-187 54 c-3 -8 -6 -5 -6 6 -1
11 2 17 5 13 3 -3 4 -12 1 -19z m-3297 -8 c0 -5 -19 -22 -42 -38 -24 -17 -54
-39 -67 -51 -13 -12 -27 -21 -30 -21 -3 0 8 12 24 26 17 15 42 37 57 49 14 13
29 21 32 18 3 -3 8 2 12 11 7 18 14 21 14 6z m1335 -10 c3 -6 -1 -7 -9 -4 -18
7 -21 14 -7 14 6 0 13 -4 16 -10z m-967 -14 c85 -23 184 -74 230 -119 23 -22
42 -45 42 -50 0 -5 -11 5 -25 21 -27 33 -112 92 -129 92 -6 -1 0 -7 13 -14 31
-17 112 -115 144 -175 27 -49 42 -106 26 -96 -5 4 -9 18 -9 32 0 15 -3 23 -7
20 -3 -4 -13 3 -21 15 -15 20 -16 20 -22 3 -6 -17 -7 -17 -12 3 -4 12 -2 20 3
16 27 -16 1 22 -55 83 -70 75 -147 123 -237 147 -30 8 -61 17 -70 21 -10 4
-19 0 -22 -9 -4 -10 -19 -16 -39 -16 -63 0 -143 -31 -201 -77 -31 -24 -57 -48
-57 -53 0 -14 82 -100 90 -95 5 3 11 1 15 -5 12 -19 50 -10 108 25 44 26 55
30 47 16 -21 -41 -129 -87 -144 -62 -4 6 -11 9 -15 6 -5 -2 -32 20 -60 50
l-51 54 -26 -39 c-15 -22 -31 -40 -35 -40 -5 0 -8 -3 -8 -7 3 -20 -2 -34 -11
-28 -6 3 -7 -1 -4 -9 3 -9 1 -16 -5 -16 -6 0 -10 -3 -10 -7 1 -5 1 -17 0 -28
-1 -17 -3 -18 -12 -5 -8 12 -10 10 -6 -10 3 -14 2 -34 -2 -45 -8 -20 -8 -20
-15 1 -11 34 54 181 74 169 4 -3 7 3 6 13 0 9 4 16 11 15 7 -2 10 3 7 10 -6
17 97 115 159 151 92 54 226 71 335 42z m152 4 c8 -5 11 -10 5 -10 -5 0 -17 5
-25 10 -8 5 -10 10 -5 10 6 0 17 -5 25 -10z m291 -7 c13 -16 12 -17 -3 -4 -10
7 -18 15 -18 17 0 8 8 3 21 -13z m-190 -59 c25 -30 2 -21 -41 18 -44 38 -44
39 -8 18 20 -12 42 -28 49 -36z m290 -69 c10 -22 20 -51 23 -65 2 -14 11 -54
20 -90 9 -36 15 -81 15 -100 -1 -22 -6 -6 -14 42 -7 42 -15 80 -18 85 -3 4 -8
25 -11 46 -7 42 -37 106 -72 153 -36 46 -29 53 7 8 18 -22 40 -57 50 -79z
m1494 105 c26 -11 -67 -11 -110 0 -24 6 -18 8 30 8 33 0 69 -3 80 -8z m-938
-37 c28 -21 72 -54 98 -73 78 -57 96 -75 50 -49 -22 12 -59 40 -83 61 -23 21
-63 52 -89 68 -26 17 -42 30 -37 30 6 0 33 -17 61 -37z m-1180 -5 c-3 -8 -6
-5 -6 6 -1 11 2 17 5 13 3 -3 4 -12 1 -19z m-80 -10 c-3 -8 -6 -5 -6 6 -1 11
2 17 5 13 3 -3 4 -12 1 -19z m71 -40 c-5 -13 43 -61 99 -100 18 -13 33 -25 33
-28 0 -3 -17 -15 -38 -27 -37 -21 -38 -21 -39 -1 -1 13 3 18 13 14 8 -3 21 -3
29 0 13 5 13 9 3 21 -23 28 -125 102 -132 96 -3 -4 -6 1 -6 10 0 10 5 14 15
11 11 -4 15 1 16 17 0 13 3 18 6 12 2 -7 3 -19 1 -25z m-449 -18 c-18 -22 -34
-40 -37 -40 -5 0 12 24 42 58 33 37 29 25 -5 -18z m829 15 c-3 -3 -9 2 -12 12
-6 14 -5 15 5 6 7 -7 10 -15 7 -18z m2456 -30 c15 -19 26 -38 26 -43 0 -4 11
-19 25 -32 13 -12 22 -27 19 -32 -3 -5 -1 -7 4 -6 6 2 52 -67 104 -152 85
-140 153 -250 216 -346 25 -40 26 -44 11 -44 -6 0 -39 -17 -73 -37 -33 -21
-68 -42 -78 -48 -32 -19 -264 -179 -353 -243 -49 -36 -128 -92 -174 -126 -47
-33 -113 -81 -148 -108 -35 -26 -72 -48 -82 -48 -10 0 -36 12 -58 28 -108 74
-243 173 -243 178 0 6 104 -67 191 -133 31 -23 68 -48 83 -54 31 -14 19 -21
296 179 267 193 298 216 354 267 27 25 52 45 55 45 13 0 111 96 111 109 0 19
-88 121 -104 121 -10 0 -11 -12 -6 -47 8 -48 -12 -103 -36 -103 -13 0 -12 138
0 159 5 7 0 11 -13 11 -13 0 -19 5 -15 14 3 9 -3 17 -15 21 -12 3 -19 10 -16
15 3 5 0 18 -6 29 -10 16 -17 17 -36 8 -13 -5 -23 -14 -23 -19 0 -4 -10 -8
-22 -8 l-23 0 25 20 c14 11 37 23 53 26 15 4 27 10 27 14 0 18 -31 136 -40
152 -6 10 -10 35 -10 56 0 21 -3 42 -7 46 -4 3 -8 12 -9 19 -5 25 -47 133 -57
145 -7 9 -6 11 6 6 9 -3 27 -21 41 -39z m-2914 16 c0 -14 -14 -22 -58 -35 -64
-18 -115 -22 -76 -6 12 5 25 13 29 19 3 6 12 11 18 11 7 0 6 -4 -3 -10 -25
-16 9 -12 45 6 l30 14 -30 -5 -30 -5 25 15 c34 20 50 19 50 -4z m262 -29 c-17
-21 -38 -45 -47 -52 -13 -11 -14 -10 -9 4 3 9 10 16 14 16 4 0 20 18 35 40 15
22 30 38 33 36 2 -3 -9 -23 -26 -44z m-28 23 c-4 -8 -11 -15 -16 -15 -6 0 -5
6 2 15 7 8 14 15 16 15 2 0 1 -7 -2 -15z m235 -29 c-2 -2 -13 8 -23 22 l-19
27 24 -22 c12 -12 21 -24 18 -27z m2828 12 c-3 -7 -5 -2 -5 12 0 14 2 19 5 13
2 -7 2 -19 0 -25z m-3114 2 c-3 -12 -8 -19 -11 -16 -5 6 5 36 12 36 2 0 2 -9
-1 -20z m2604 -12 c-3 -8 -6 -5 -6 6 -1 11 2 17 5 13 3 -3 4 -12 1 -19z m363
12 c0 -5 -8 -10 -17 -10 -15 0 -16 2 -3 10 19 12 20 12 20 0z m-1795 -40 c10
-11 16 -20 13 -20 -3 0 -13 9 -23 20 -10 11 -16 20 -13 20 3 0 13 -9 23 -20z
m-1549 -18 c-14 -14 -17 -14 -14 -2 3 17 20 31 27 24 3 -2 -3 -12 -13 -22z
m432 -67 c-53 -52 -103 -95 -110 -95 -7 1 3 13 22 28 19 15 66 57 105 94 38
37 72 67 75 67 3 1 -39 -42 -92 -94z m277 34 c14 -28 25 -58 24 -67 0 -9 -5
-3 -11 13 -6 17 -22 47 -35 67 -25 40 -29 53 -13 43 5 -3 21 -28 35 -56z m370
10 c9 -17 15 -33 13 -35 -3 -2 -12 12 -21 31 -21 43 -13 47 8 4z m620 0 c32
-28 65 -103 51 -116 -2 -3 -8 12 -12 32 -4 24 -21 52 -45 76 -47 47 -43 51 6
8z m-1398 5 c0 -9 -5 -10 -19 -3 -10 5 -18 12 -18 14 0 2 8 3 18 2 10 0 19 -7
19 -13z m238 -24 c-13 -14 -14 -20 -5 -20 7 0 11 -3 7 -6 -3 -3 -11 -3 -17 1
-8 5 -6 13 6 26 9 10 19 19 22 19 3 0 -3 -9 -13 -20z m887 -28 c1 -23 -2 -45
-5 -49 -4 -3 -7 18 -7 47 0 62 9 63 12 2z m-1192 30 c0 -5 -7 -9 -15 -9 -8 0
-12 4 -9 9 3 4 9 8 15 8 5 0 9 -4 9 -8z m1338 1 c-10 -2 -28 -2 -40 0 -13 2
-5 4 17 4 22 1 32 -1 23 -4z m49 1 c-3 -3 -12 -4 -19 -1 -8 3 -5 6 6 6 11 1
17 -2 13 -5z m63 -4 c0 -13 -11 -13 -30 0 -12 8 -11 10 8 10 12 0 22 -4 22
-10z m-394 -87 c-10 -61 -11 -64 -16 -33 l-6 35 -17 -45 -17 -45 6 39 c8 54
34 116 48 116 9 0 10 -16 2 -67z m54 42 c0 -14 -2 -25 -4 -25 -2 0 -6 11 -8
25 -3 14 -1 25 3 25 5 0 9 -11 9 -25z m-1116 3 c-3 -4 -9 -8 -15 -8 -5 0 -9 4
-9 8 0 5 7 9 15 9 8 0 12 -4 9 -9z m886 -23 c0 -5 -5 -3 -10 5 -5 8 -10 20
-10 25 0 6 5 3 10 -5 5 -8 10 -19 10 -25z m-1180 4 c0 -6 -4 -7 -10 -4 -5 3
-10 11 -10 16 0 6 5 7 10 4 6 -3 10 -11 10 -16z m1453 14 c-7 -2 -19 -2 -25 0
-7 3 -2 5 12 5 14 0 19 -2 13 -5z m-1470 -31 c11 -13 26 -21 33 -18 13 5 18
-6 15 -26 -2 -14 12 -8 38 14 22 20 22 18 -3 -9 l-28 -31 -22 23 c-11 13 -34
35 -51 49 -16 15 -23 25 -15 24 8 -2 23 -13 33 -26z m272 18 c-3 -5 -12 -10
-18 -10 -7 0 -6 4 3 10 19 12 23 12 15 0z m1365 0 c0 -5 -7 -7 -15 -4 -8 4
-15 8 -15 10 0 2 7 4 15 4 8 0 15 -4 15 -10z m1218 -56 c-2 -89 -18 -93 -18
-5 0 40 4 71 10 71 5 0 9 -28 8 -66z m-2678 14 c18 -21 57 -31 65 -17 4 5 19
9 35 9 23 0 28 4 27 20 -1 11 -6 20 -11 20 -5 0 -7 3 -4 6 4 3 18 -2 32 -11
14 -10 34 -15 44 -13 15 4 18 -1 18 -28 -1 -19 -4 -34 -7 -34 -12 0 -31 29
-25 39 7 10 -19 23 -28 14 -3 -4 -1 -12 5 -19 8 -10 4 -12 -24 -7 -41 6 -60
-13 -24 -26 33 -13 87 -77 87 -104 0 -19 -2 -18 -16 8 -24 47 -52 71 -101 90
-51 20 -69 15 -134 -37 -21 -17 -42 -29 -45 -25 -6 5 64 74 93 91 12 7 10 13
-14 39 -16 18 -19 25 -8 17 11 -8 27 -22 35 -32z m538 -18 c0 -9 -3 -7 -8 5
-5 11 -8 29 -8 40 0 16 2 15 8 -5 4 -14 8 -32 8 -40z m2296 9 c-11 -17 -30
-39 -44 -48 -21 -13 -19 -10 7 19 18 18 35 42 39 53 3 10 8 16 11 13 3 -3 -3
-19 -13 -37z m-1603 -49 c-9 -24 -10 -24 -10 7 -1 17 2 40 7 50 6 15 7 14 10
-7 2 -14 -2 -37 -7 -50z m196 64 c-3 -3 -12 -4 -19 -1 -8 3 -5 6 6 6 11 1 17
-2 13 -5z m-1112 -28 c0 -16 -4 -21 -10 -16 -7 6 -16 1 -23 -11 -10 -15 -16
-18 -26 -10 -7 6 -17 7 -21 3 -5 -4 -5 -1 -1 6 4 7 11 10 15 8 4 -3 18 6 32
19 31 30 34 30 34 1z m1268 7 c-7 -2 -19 -2 -25 0 -7 3 -2 5 12 5 14 0 19 -2
13 -5z m-618 -12 c3 -5 1 -12 -4 -15 -5 -3 -7 -16 -5 -29 4 -20 4 -21 -5 -2
-5 11 -10 28 -10 38 -1 18 14 23 24 8z m1572 -13 c-3 -8 -6 -5 -6 6 -1 11 2
17 5 13 3 -3 4 -12 1 -19z m-1462 -8 c22 0 35 -6 40 -17 5 -15 4 -16 -6 -5 -7
6 -27 12 -43 12 -17 0 -38 5 -46 11 -12 9 -12 10 3 5 10 -3 34 -6 52 -6z
m-1401 -55 c-9 -38 -26 -16 -18 24 6 26 9 30 16 18 5 -9 6 -28 2 -42z m3294
36 c3 -10 0 -12 -11 -8 -9 3 -21 -1 -28 -9 -15 -18 -34 -3 -25 21 7 20 57 17
64 -4z m-227 -21 c-13 -11 -28 -20 -35 -20 -6 0 3 9 19 19 39 25 46 25 16 1z
m-2188 -10 c-3 -11 -7 -20 -9 -20 -2 0 -4 9 -4 20 0 11 4 20 9 20 5 0 7 -9 4
-20z m-126 -32 c-3 -7 -5 -2 -5 12 0 14 2 19 5 13 2 -7 2 -19 0 -25z m576 17
c42 -11 32 -25 -17 -25 -35 0 -45 4 -49 20 -5 21 0 22 66 5z m-1126 -1 c-3 -3
-12 -4 -19 -1 -8 3 -5 6 6 6 11 1 17 -2 13 -5z m1933 -9 c25 -14 24 -14 -14
-11 -22 1 -41 7 -44 14 -5 16 27 15 58 -3z m-1240 -18 c0 -16 -116 -37 -193
-36 -47 1 -49 2 -22 10 17 5 49 10 71 11 23 2 40 7 37 12 -3 5 11 7 31 4 20
-2 36 0 36 4 0 4 9 8 20 8 11 0 20 -6 20 -13z m1044 -31 c-20 -24 -51 -54 -68
-67 -17 -12 -2 8 34 44 36 37 66 67 68 67 2 0 -14 -20 -34 -44z m-1961 4 c3
-11 1 -18 -4 -14 -5 3 -9 12 -9 20 0 20 7 17 13 -6z m1465 4 c12 -8 27 -24 33
-35 9 -18 8 -19 -10 -7 -11 6 -18 15 -15 20 3 4 -8 14 -23 22 -15 8 -23 15
-18 16 6 0 21 -7 33 -16z m-1532 -29 c-36 -19 -57 -19 -32 0 11 8 29 15 40 15
18 0 16 -3 -8 -15z m99 -5 c3 -5 1 -10 -4 -10 -6 0 -11 5 -11 10 0 6 2 10 4
10 3 0 8 -4 11 -10z m-175 -14 c0 -2 -8 -10 -17 -17 -16 -13 -17 -12 -4 4 13
16 21 21 21 13z m2810 -6 c8 -5 11 -10 5 -10 -5 0 -17 5 -25 10 -8 5 -10 10
-5 10 6 0 17 -5 25 -10z m-1113 -52 c-3 -7 -5 -2 -5 12 0 14 2 19 5 13 2 -7 2
-19 0 -25z m-720 -10 c-3 -7 -5 -2 -5 12 0 14 2 19 5 13 2 -7 2 -19 0 -25z
m-830 -30 c-2 -13 -4 -5 -4 17 -1 22 1 32 4 23 2 -10 2 -28 0 -40z m-137 -37
c0 -13 -2 -14 -9 -2 -6 9 -8 -17 -5 -70 3 -57 1 -78 -5 -64 -5 11 -10 63 -10
115 -1 90 0 94 14 66 8 -15 15 -36 15 -45z m1955 59 c-3 -5 -16 -15 -28 -21
-19 -9 -19 -8 3 10 28 23 34 26 25 11z m-1201 -49 c15 -15 26 -33 24 -39 -2
-5 2 -9 7 -8 6 0 9 5 7 10 -2 5 11 -2 27 -15 17 -13 43 -34 59 -46 30 -22 40
-55 14 -46 -10 4 -11 8 -1 13 8 6 6 11 -9 19 -29 16 -37 14 -21 -6 12 -14 10
-14 -13 1 -32 21 -36 28 -10 19 15 -6 15 -4 -2 15 -18 20 -43 21 -31 1 12 -18
-2 -8 -31 23 -16 17 -23 28 -15 23 9 -5 12 -3 9 6 -3 8 -10 13 -16 12 -5 -1
-16 4 -22 12 -7 8 -9 15 -4 15 5 0 2 5 -6 10 -8 5 -10 10 -4 10 5 0 23 -13 38
-29z m1210 -59 c167 -87 336 -187 525 -310 l125 -81 65 52 c36 28 99 78 139
110 39 32 72 56 72 53 0 -3 -58 -53 -130 -112 -71 -58 -130 -109 -130 -112 0
-4 12 -17 28 -30 15 -13 -28 13 -95 57 -169 111 -493 306 -643 385 -69 36
-121 66 -116 66 5 0 77 -35 160 -78z m-64 74 c0 -2 -7 -7 -16 -10 -8 -3 -12
-2 -9 4 6 10 25 14 25 6z m-1545 -16 c-3 -5 -42 -27 -85 -48 -43 -20 -73 -31
-66 -22 7 8 11 22 9 30 -4 13 -3 13 6 0 9 -13 19 -10 73 17 73 37 71 36 63 23z
m-218 -47 c-3 -10 -5 -4 -5 12 0 17 2 24 5 18 2 -7 2 -21 0 -30z m243 -3 c0
-5 -5 -10 -11 -10 -5 0 -7 5 -4 10 3 6 8 10 11 10 2 0 4 -4 4 -10z m-233 -52
c-3 -7 -5 -2 -5 12 0 14 2 19 5 13 2 -7 2 -19 0 -25z m2933 28 c0 -2 -8 -10
-17 -17 -16 -13 -17 -12 -4 4 13 16 21 21 21 13z m297 -68 c-3 -8 -6 -5 -6 6
-1 11 2 17 5 13 3 -3 4 -12 1 -19z m-367 9 c0 -2 -10 -12 -22 -23 l-23 -19 19
23 c18 21 26 27 26 19z m357 -49 c-3 -8 -6 -5 -6 6 -1 11 2 17 5 13 3 -3 4
-12 1 -19z m-1568 -43 c0 -5 -6 1 -14 15 -8 14 -14 30 -14 35 0 6 6 -1 14 -15
8 -14 14 -29 14 -35z m1151 42 c0 -2 -12 -14 -27 -28 l-28 -24 24 28 c23 25
31 32 31 24z m-2495 -163 c51 -17 62 -23 40 -23 -16 0 -48 7 -70 15 -22 9 -46
16 -52 16 -7 1 -11 3 -8 6 2 3 -15 28 -38 56 -72 87 -74 94 -7 23 56 -60 74
-72 135 -93z m2880 31 c-15 -58 -30 -104 -32 -102 -2 3 9 52 24 110 15 58 30
104 32 101 2 -2 -8 -51 -24 -109z m-2886 93 c-2 -2 -21 -18 -40 -36 -27 -24
-39 -30 -44 -21 -5 7 -4 10 2 6 5 -3 25 9 43 28 19 19 36 33 38 30 3 -3 3 -6
1 -7z m1558 -434 c-4 -4 -197 383 -196 394 0 4 45 -82 100 -192 55 -109 99
-200 96 -202z m-1157 382 c0 -13 -125 -72 -185 -87 -78 -21 -140 -25 -130 -9
4 6 10 8 15 5 15 -9 104 16 118 33 8 11 12 12 12 3 0 -18 49 -6 112 30 56 31
58 31 58 25z m-556 -115 c33 -23 55 -41 50 -41 -5 0 -26 11 -45 25 -20 13 -39
22 -42 19 -2 -3 -14 7 -25 21 -11 14 -24 25 -28 25 -4 -1 -16 13 -27 32 l-20
33 39 -37 c21 -20 66 -54 98 -77z m193 93 c-3 -3 -12 -4 -19 -1 -8 3 -5 6 6 6
11 1 17 -2 13 -5z m1161 -304 c8 -19 11 -32 8 -29 -8 8 -116 229 -115 237 0 8
86 -158 107 -208z m2129 158 c-3 -8 -6 -5 -6 6 -1 11 2 17 5 13 3 -3 4 -12 1
-19z m-2095 -35 c-10 -4 -8 -9 5 -19 17 -13 17 -13 -4 -14 -13 0 -23 2 -23 4
0 2 -2 11 -5 18 -4 9 2 14 17 15 13 0 17 -1 10 -4z m2105 -45 c-3 -7 -5 -2 -5
12 0 14 2 19 5 13 2 -7 2 -19 0 -25z m-1227 19 c0 -1 -71 -72 -157 -157 -87
-85 -154 -150 -149 -145 4 6 45 50 89 99 45 49 81 93 79 98 -1 5 1 7 6 4 4 -3
35 20 67 50 55 50 65 58 65 51z m1007 -29 c-3 -8 -6 -5 -6 6 -1 11 2 17 5 13
3 -3 4 -12 1 -19z m170 -30 c-3 -7 -5 -2 -5 12 0 14 2 19 5 13 2 -7 2 -19 0
-25z m-2298 -22 c-6 -21 -12 -36 -14 -34 -3 2 0 21 6 42 6 21 12 36 14 34 3
-2 0 -21 -6 -42z m2248 2 c-3 -8 -6 -5 -6 6 -1 11 2 17 5 13 3 -3 4 -12 1 -19z
m110 -10 c-3 -7 -5 -2 -5 12 0 14 2 19 5 13 2 -7 2 -19 0 -25z m-2487 -18 c8
-5 11 -10 5 -10 -5 0 -17 5 -25 10 -8 5 -10 10 -5 10 6 0 17 -5 25 -10z m2437
-32 c-3 -7 -5 -2 -5 12 0 14 2 19 5 13 2 -7 2 -19 0 -25z m-2358 6 c2 -2 2 -7
-1 -10 -4 -3 -19 2 -35 10 l-28 16 30 -6 c17 -4 32 -8 34 -10z m2037 0 c18
-14 18 -15 -3 -4 -24 11 -47 4 -89 -29 -11 -9 -5 -1 15 17 39 36 49 38 77 16z
m-2014 -16 c-7 -7 -12 -8 -12 -2 0 14 12 26 19 19 2 -3 -1 -11 -7 -17z m2235
-10 c-3 -8 -6 -5 -6 6 -1 11 2 17 5 13 3 -3 4 -12 1 -19z m50 0 c-3 -8 -6 -5
-6 6 -1 11 2 17 5 13 3 -3 4 -12 1 -19z m-2237 2 c0 -5 -4 -10 -10 -10 -5 0
-10 5 -10 10 0 6 5 10 10 10 6 0 10 -4 10 -10z m50 -10 c13 -8 13 -10 -2 -10
-9 0 -20 5 -23 10 -8 13 5 13 25 0z m-130 -47 c-47 -77 -74 -106 -124 -129
-28 -13 -58 -24 -66 -23 -8 0 6 8 32 18 70 28 100 53 138 119 19 33 36 59 39
57 2 -2 -7 -21 -19 -42z m2157 25 c-3 -8 -6 -5 -6 6 -1 11 2 17 5 13 3 -3 4
-12 1 -19z m-1802 -72 c99 -42 223 -97 275 -121 52 -24 109 -49 125 -56 17 -6
25 -13 19 -15 -10 -4 -42 9 -184 74 -259 118 -414 182 -433 178 -12 -3 -16 -3
-9 0 6 3 9 11 5 17 -8 12 -23 18 202 -77z m2022 62 c-3 -8 -6 -5 -6 6 -1 11 2
17 5 13 3 -3 4 -12 1 -19z m-5835 -20 c-8 -8 -9 -4 -5 13 4 13 8 18 11 10 2
-7 -1 -18 -6 -23z m3802 -8 c-6 -5 -24 21 -24 34 0 6 6 1 14 -10 8 -10 12 -21
10 -24z m-304 20 c0 -5 -2 -10 -4 -10 -3 0 -8 5 -11 10 -3 6 -1 10 4 10 6 0
11 -4 11 -10z m2187 -32 c-3 -7 -5 -2 -5 12 0 14 2 19 5 13 2 -7 2 -19 0 -25z
m50 0 c-3 -7 -5 -2 -5 12 0 14 2 19 5 13 2 -7 2 -19 0 -25z m50 10 c-3 -8 -6
-5 -6 6 -1 11 2 17 5 13 3 -3 4 -12 1 -19z m-2867 -14 c0 -2 -9 0 -20 6 -11 6
-20 13 -20 16 0 2 9 0 20 -6 11 -6 20 -13 20 -16z m1128 -55 c55 -32 73 -50
23 -25 -16 9 -31 13 -34 10 -7 -7 -83 32 -93 47 -11 19 44 1 104 -32z m962
-109 c-48 -145 -63 -174 -35 -71 8 30 11 60 6 65 -5 6 -11 25 -15 41 -5 22 -4
26 4 15 5 -8 10 -23 10 -33 0 -43 22 -2 66 122 2 8 6 12 8 10 3 -2 -17 -69
-44 -149z m887 63 c-3 -10 -5 -2 -5 17 0 19 2 27 5 18 2 -10 2 -26 0 -35z
m-1577 34 c0 -2 -12 -14 -27 -28 l-28 -24 24 28 c23 25 31 32 31 24z m1035
-34 c53 -18 58 -20 76 -22 6 0 -3 -13 -20 -27 l-31 -26 -70 21 c-73 22 -78 27
-57 52 6 7 -8 -4 -31 -26 -57 -52 -126 -148 -156 -218 -26 -58 -54 -90 -41
-46 27 87 88 181 166 254 62 58 88 64 164 38z m-2208 1 c-3 -3 -12 -4 -19 -1
-8 3 -5 6 6 6 11 1 17 -2 13 -5z m40 -10 c-3 -3 -12 -4 -19 -1 -8 3 -5 6 6 6
11 1 17 -2 13 -5z m56 -11 c-7 -2 -19 -2 -25 0 -7 3 -2 5 12 5 14 0 19 -2 13
-5z m2314 -12 c-41 -26 -80 -77 -126 -162 -23 -41 -41 -67 -41 -58 0 10 13 42
29 73 35 66 33 74 -3 14 -27 -45 -36 -42 -11 2 17 30 19 44 4 34 -8 -4 -8 0 0
15 14 25 23 28 15 4 -4 -10 3 -4 14 12 23 35 72 83 72 69 -1 -5 -14 -24 -30
-43 -45 -53 -29 -47 27 9 28 27 56 50 64 50 8 0 1 -9 -14 -19z m-657 -19 c3
-3 -8 -2 -25 2 -16 4 -34 12 -40 17 -5 5 6 4 25 -2 19 -7 37 -14 40 -17z m686
-26 c-25 -30 -46 -58 -46 -63 0 -4 12 7 26 25 14 17 47 47 72 64 46 32 46 31
-18 -33 -42 -43 -80 -94 -109 -148 -28 -54 -48 -81 -56 -77 -8 3 -16 0 -19 -7
-2 -7 -5 -3 -5 7 -2 41 69 164 129 225 33 34 63 61 66 61 4 0 -14 -24 -40 -54z
m-638 19 c-3 -3 -9 2 -12 12 -6 14 -5 15 5 6 7 -7 10 -15 7 -18z m-635 -1 c60
-31 65 -61 6 -32 -24 11 -54 18 -70 16 -32 -5 -38 6 -11 21 24 14 38 13 75 -5z
m-368 -22 c-3 -3 -11 0 -18 7 -9 10 -8 11 6 5 10 -3 15 -9 12 -12z m809 3 c11
-8 15 -15 10 -15 -6 0 -19 7 -30 15 -10 8 -14 14 -9 14 6 0 19 -6 29 -14z
m-61 -17 c-2 -5 3 -8 11 -8 18 0 63 -54 82 -99 12 -30 12 -31 -6 -21 -11 6
-19 15 -17 21 1 6 -36 32 -83 57 -80 44 -83 47 -56 52 43 7 75 6 69 -2z m1037
-7 c0 -3 -21 -26 -45 -50 -25 -24 -52 -56 -61 -72 -15 -31 -38 -41 -27 -12 4
11 3 14 -5 9 -18 -11 -15 0 13 44 38 60 82 99 105 93 11 -3 20 -8 20 -12z
m-929 -18 c13 -16 12 -17 -3 -4 -10 7 -18 15 -18 17 0 8 8 3 21 -13z m-175 -8
c18 -13 18 -14 -6 -8 -23 5 -22 3 12 -30 32 -31 35 -37 21 -48 -12 -11 -18 -9
-33 11 -10 14 -16 28 -13 32 2 5 1 7 -4 6 -8 -3 -83 40 -83 48 0 11 89 2 106
-11z m-336 -21 c0 -2 -9 0 -20 6 -11 6 -20 13 -20 16 0 2 9 0 20 -6 11 -6 20
-13 20 -16z m179 -26 c17 -18 31 -37 31 -42 0 -4 -8 0 -17 11 -10 10 -14 14
-10 7 4 -7 7 -16 6 -20 -1 -5 3 -22 9 -37 7 -16 11 -43 11 -60 l-1 -32 -8 35
c-11 53 -14 65 -21 70 -3 3 -18 26 -33 53 -22 37 -25 47 -12 47 8 0 29 -15 45
-32z m1393 4 c15 -6 10 -17 -38 -71 -30 -35 -69 -88 -86 -118 -32 -56 -49 -74
-23 -23 8 16 20 42 26 56 8 24 8 25 -6 14 -9 -8 -15 -8 -15 -2 0 6 4 13 9 16
5 3 11 15 14 26 8 29 -5 17 -28 -27 -11 -21 -25 -42 -32 -46 -7 -4 -13 -15
-13 -22 0 -8 -4 -15 -10 -15 -5 0 -10 7 -10 15 0 8 -4 15 -10 15 -5 0 -7 7 -3
16 5 13 7 13 14 2 7 -10 9 -10 10 2 1 8 3 25 4 37 2 20 42 93 51 93 3 0 -7
-21 -22 -47 l-27 -48 57 62 c36 40 66 63 84 66 15 2 29 4 32 5 3 0 13 -3 22
-6z m-1332 -98 c0 -8 5 -14 11 -14 5 0 7 -5 3 -11 -4 -8 -12 -3 -20 12 -16 29
-18 42 -4 34 6 -3 10 -13 10 -21z m597 -20 c-3 -3 -12 -4 -19 -1 -8 3 -5 6 6
6 11 1 17 -2 13 -5z m71 -11 c-10 -2 -28 -2 -40 0 -13 2 -5 4 17 4 22 1 32 -1
23 -4z m-199 -17 c36 -8 107 -20 156 -26 50 -6 95 -16 100 -22 7 -7 0 -9 -25
-4 -19 4 -71 11 -115 16 -44 5 -93 14 -110 21 -16 7 -91 15 -165 19 l-135 7
114 1 c67 1 140 -4 180 -12z m254 7 c-7 -2 -19 -2 -25 0 -7 3 -2 5 12 5 14 0
19 -2 13 -5z m-683 -44 c0 -5 -4 -9 -8 -9 -5 0 -9 7 -9 15 0 8 4 12 9 9 4 -3
8 -9 8 -15z m-63 -31 c-3 -7 -5 -2 -5 12 0 14 2 19 5 13 2 -7 2 -19 0 -25z
m393 -3 c-13 -14 -27 -25 -32 -25 -9 0 42 49 51 50 3 0 -6 -11 -19 -25z m274
-7 c22 -5 46 -13 55 -18 14 -8 13 -9 -5 -10 -28 0 -112 29 -121 43 -4 7 0 8
13 3 10 -5 37 -12 58 -18z m296 -28 c0 -5 -17 -9 -37 -9 l-38 2 35 7 c19 4 36
8 38 9 1 0 2 -3 2 -9z m-42 -47 c-10 -2 -26 -2 -35 0 -10 3 -2 5 17 5 19 0 27
-2 18 -5z m-978 -19 c0 -3 -20 -14 -43 -24 -45 -20 -82 -17 -124 10 -17 11
-16 11 2 4 42 -16 103 -16 131 0 34 18 34 18 34 10z m740 -42 c0 -12 -200 -31
-380 -36 l-155 -5 200 14 c164 12 319 27 333 34 1 0 2 -3 2 -7z m-547 -49 c-7
-2 -21 -2 -30 0 -10 3 -4 5 12 5 17 0 24 -2 18 -5z m-1986 -135 c22 -35 47
-75 57 -90 10 -16 16 -28 13 -28 -3 0 -27 35 -54 78 -62 96 -65 102 -60 102 3
0 22 -28 44 -62z m64 -15 c13 -16 12 -17 -3 -4 -10 7 -18 15 -18 17 0 8 8 3
21 -13z m157 -203 c87 -113 167 -238 158 -247 -2 -2 -30 35 -62 84 -31 48 -74
108 -94 133 -20 25 -51 67 -69 94 -18 28 -44 66 -58 85 l-25 36 31 -35 c17
-19 71 -87 119 -150z m-127 73 c13 -16 12 -17 -3 -4 -10 7 -18 15 -18 17 0 8
8 3 21 -13z m2404 -32 c-33 -3 -67 -10 -75 -14 -8 -5 -6 -1 4 7 14 11 38 16
75 14 l56 -1 -60 -6z m-2334 -53 c24 -29 36 -47 26 -39 -20 16 -81 91 -74 91
2 0 24 -24 48 -52z m1224 32 c-11 -5 -14 -9 -7 -9 14 -1 17 -41 2 -41 -5 0 -6
7 -3 17 4 11 3 14 -5 9 -8 -5 -12 0 -12 13 0 15 6 21 23 20 21 0 21 -1 2 -9z
m-2405 -69 l25 -23 -32 16 c-30 15 -63 51 -63 69 0 4 10 -2 23 -15 12 -13 33
-34 47 -47z m2137 3 c19 -14 50 -51 70 -82 21 -32 51 -72 67 -90 20 -22 25
-31 13 -26 -10 3 -45 46 -78 95 -33 48 -75 97 -92 108 -18 12 -28 21 -23 21 5
0 24 -12 43 -26z m-2092 -52 c-3 -3 -11 0 -18 7 -9 10 -8 11 6 5 10 -3 15 -9
12 -12z m2055 -254 c22 -43 39 -78 36 -78 -6 0 -146 258 -146 270 0 13 41 -58
110 -192z m126 -120 c38 -75 38 -89 0 -30 -29 47 -166 317 -166 329 0 9 114
-196 166 -299z m-2466 160 c30 -40 65 -81 78 -92 12 -11 22 -24 22 -30 0 -7
-3 -8 -8 -1 -4 6 -12 10 -18 10 -9 0 -42 35 -92 100 -23 29 -53 85 -45 85 4
-1 33 -33 63 -72z m2677 46 c-3 -3 -12 -4 -19 -1 -8 3 -5 6 6 6 11 1 17 -2 13
-5z m-490 -76 c-3 -8 -6 -5 -6 6 -1 11 2 17 5 13 3 -3 4 -12 1 -19z m491 15
c-15 -2 -42 -2 -60 0 -18 2 -6 4 27 4 33 0 48 -2 33 -4z m-30 -50 c-10 -2 -26
-2 -35 0 -10 3 -2 5 17 5 19 0 27 -2 18 -5z m69 1 c-3 -3 -12 -4 -19 -1 -8 3
-5 6 6 6 11 1 17 -2 13 -5z m-10 -60 c-3 -3 -12 -4 -19 -1 -8 3 -5 6 6 6 11 1
17 -2 13 -5z m-73 -53 c4 -5 -3 -7 -14 -4 -23 6 -26 13 -6 13 8 0 17 -4 20 -9z
m-2813 -54 l32 -42 -41 40 c-23 22 -41 44 -42 48 0 14 17 -2 51 -46z m2887 46
c-10 -2 -28 -2 -40 0 -13 2 -5 4 17 4 22 1 32 -1 23 -4z m-75 -50 c-7 -2 -19
-2 -25 0 -7 3 -2 5 12 5 14 0 19 -2 13 -5z m85 -10 c-10 -2 -26 -2 -35 0 -10
3 -2 5 17 5 19 0 27 -2 18 -5z m-508 -40 l25 -14 -25 7 c-41 11 -70 23 -70 29
0 8 39 -4 70 -22z m498 -30 c-16 -2 -40 -2 -55 0 -16 2 -3 4 27 4 30 0 43 -2
28 -4z m-21 -49 c-3 -3 -12 -4 -19 -1 -8 3 -5 6 6 6 11 1 17 -2 13 -5z m-302
-24 c3 -5 1 -10 -4 -10 -6 0 -11 5 -11 10 0 6 2 10 4 10 3 0 8 -4 11 -10z
m318 -47 c-7 -2 -21 -2 -30 0 -10 3 -4 5 12 5 17 0 24 -2 18 -5z m-198 -13 c8
-13 -5 -13 -25 0 -13 8 -13 10 2 10 9 0 20 -4 23 -10z m192 -46 c-3 -3 -12 -4
-19 -1 -8 3 -5 6 6 6 11 1 17 -2 13 -5z m-247 -65 c12 -16 20 -32 17 -35 -2
-3 -14 11 -25 31 -26 43 -21 46 8 4z m193 -6 c-7 -2 -19 -2 -25 0 -7 3 -2 5
12 5 14 0 19 -2 13 -5z m65 0 c-10 -2 -26 -2 -35 0 -10 3 -2 5 17 5 19 0 27
-2 18 -5z m-2348 -27 c0 -2 -7 -7 -16 -10 -8 -3 -12 -2 -9 4 6 10 25 14 25 6z
m2333 -33 c-18 -2 -48 -2 -65 0 -18 2 -4 4 32 4 36 0 50 -2 33 -4z m-257 -75
c9 -18 37 -63 61 -100 24 -37 46 -76 50 -85 3 -10 -26 32 -66 92 -39 61 -71
113 -71 118 0 15 10 6 26 -25z m262 25 c-10 -2 -28 -2 -40 0 -13 2 -5 4 17 4
22 1 32 -1 23 -4z m-2183 -50 c13 -19 13 -22 -1 -27 -12 -5 -15 -2 -10 9 4 11
-3 19 -19 25 -30 11 -33 21 -5 17 11 -2 27 -13 35 -24z m2133 -10 c-10 -2 -26
-2 -35 0 -10 3 -2 5 17 5 19 0 27 -2 18 -5z m59 -9 c-3 -3 -12 -4 -19 -1 -8 3
-5 6 6 6 11 1 17 -2 13 -5z m-2137 -34 c0 -5 -4 -10 -10 -10 -5 0 -10 5 -10
10 0 6 5 10 10 10 6 0 10 -4 10 -10z m2103 -17 c-7 -2 -21 -2 -30 0 -10 3 -4
5 12 5 17 0 24 -2 18 -5z m-2046 -49 c3 -8 11 -13 18 -10 7 2 21 -3 31 -13 11
-9 33 -25 51 -36 18 -10 29 -23 26 -29 -4 -5 1 -7 11 -3 10 4 15 3 11 -3 -9
-15 -35 -12 -35 5 0 9 -6 12 -15 9 -8 -4 -15 -1 -15 5 0 6 -7 8 -15 5 -9 -4
-15 0 -15 10 0 9 -4 16 -10 16 -5 0 -10 8 -10 17 0 12 -3 14 -11 6 -8 -8 -16
-7 -30 5 -21 18 -25 32 -9 32 6 0 13 -7 17 -16z m2076 -11 c-13 -2 -35 -2 -50
0 -16 2 -5 4 22 4 28 0 40 -2 28 -4z m7 -60 c2 -2 -14 -3 -37 -2 -23 2 -40 6
-37 11 4 7 63 0 74 -9z m-1915 -43 c3 -5 1 -10 -4 -10 -6 0 -11 5 -11 10 0 6
2 10 4 10 3 0 8 -4 11 -10z m1898 -17 c-7 -2 -21 -2 -30 0 -10 3 -4 5 12 5 17
0 24 -2 18 -5z m-1873 -14 c0 -6 9 -9 20 -6 25 6 26 1 2 -12 -14 -7 -21 -5
-30 10 -7 11 -8 19 -2 19 5 0 10 -5 10 -11z m60 -39 c8 -5 11 -10 5 -10 -5 0
-17 5 -25 10 -8 5 -10 10 -5 10 6 0 17 -5 25 -10z m80 -41 c0 -11 -21 -11 -39
0 -9 6 -5 9 13 9 14 0 26 -4 26 -9z m-350 -89 c-12 -8 -9 -10 13 -10 27 0 97
-24 97 -34 0 -10 -124 30 -128 42 -2 6 4 12 15 12 15 0 16 -2 3 -10z m-262
-109 c9 -5 39 -12 66 -15 27 -4 53 -9 58 -12 4 -3 18 -7 30 -9 13 -3 24 -9 26
-14 2 -6 10 -7 18 -4 8 3 14 1 14 -5 0 -5 19 -12 43 -16 50 -8 155 -45 163
-57 7 -12 5 -12 -67 10 -35 11 -102 29 -149 41 -129 31 -282 90 -237 90 10 0
26 -4 35 -9z m978 -154 c24 -34 44 -66 44 -71 0 -6 -16 13 -35 42 -21 31 -40
50 -47 46 -7 -5 -8 -2 -4 5 5 7 0 21 -11 33 -10 12 -12 18 -5 14 7 -4 33 -35
58 -69z m219 62 c4 -5 50 -10 103 -10 53 -1 87 -4 74 -6 -12 -2 -20 -8 -17
-13 3 -5 -15 -12 -40 -15 -25 -4 -45 -11 -45 -15 0 -5 -55 -8 -122 -7 -89 2
-122 5 -126 15 -3 10 -7 10 -18 1 -12 -10 -13 -9 -8 5 3 9 10 16 15 16 4 0 6
8 3 18 -5 16 -5 16 6 -1 9 -14 19 -16 47 -11 20 4 46 12 58 18 28 15 63 17 70
5z m-682 -69 c26 -7 46 -15 43 -17 -8 -8 -126 30 -120 39 3 5 11 5 17 0 7 -5
34 -15 60 -22z m88 -38 c-7 -2 -18 1 -23 6 -8 8 -4 9 13 5 13 -4 18 -8 10 -11z
m1069 -11 l75 -6 -45 -9 c-95 -18 -594 -17 -576 1 17 18 381 27 546 14z m155
-71 c3 -6 10 -8 15 -5 5 3 20 -1 34 -10 13 -9 29 -14 36 -13 7 2 14 -2 17 -8
5 -13 -54 -37 -69 -28 -5 4 -58 6 -117 5 -59 -1 -120 3 -135 9 -17 6 -25 6
-21 0 3 -6 -1 -10 -9 -10 -9 0 -16 5 -16 11 0 12 -43 1 -48 -12 -2 -4 -10 -5
-18 -2 -7 3 -12 9 -9 13 3 5 -4 6 -15 3 -11 -3 -20 -9 -20 -14 0 -5 -4 -9 -10
-9 -5 0 -7 7 -4 15 5 12 -4 13 -50 10 -39 -3 -55 0 -53 8 2 13 -77 28 -108 21
-16 -4 -17 -3 -5 5 8 6 31 8 51 5 20 -4 39 -2 42 3 8 13 504 16 512 3z m-1088
-16 c-3 -3 -12 -4 -19 -1 -8 3 -5 6 6 6 11 1 17 -2 13 -5z m-1971 -20 c-4 -11
-2 -15 7 -11 8 3 20 1 28 -4 10 -6 10 -9 2 -9 -7 0 -15 1 -17 3 -2 1 -13 -7
-25 -17 -12 -11 -21 -14 -21 -8 0 7 5 12 11 12 6 0 8 7 5 16 -3 9 -4 20 0 25
9 15 17 10 10 -7z m74 6 c0 -5 -2 -10 -4 -10 -3 0 -8 5 -11 10 -3 6 -1 10 4
10 6 0 11 -4 11 -10z m-112 -24 c1 -17 -1 -18 -8 -6 -5 8 -10 11 -10 7 0 -5
-5 -5 -10 -2 -13 8 -5 22 13 22 7 0 14 -10 15 -21z m2582 14 c-20 -13 -40 -13
-40 0 0 6 12 10 28 10 21 0 24 -2 12 -10z m-2833 -16 c-3 -3 -12 -4 -19 -1 -8
3 -5 6 6 6 11 1 17 -2 13 -5z m7013 -4 c0 -5 -2 -10 -4 -10 -3 0 -8 5 -11 10
-3 6 -1 10 4 10 6 0 11 -4 11 -10z m-6864 -22 c-3 -13 -5 -26 -5 -30 -1 -5 -8
-8 -18 -8 -9 0 -13 -3 -10 -7 4 -3 2 -12 -5 -20 -9 -11 -7 -12 8 -6 10 3 22
11 27 17 9 14 28 -14 19 -29 -3 -5 2 -4 11 4 9 7 17 10 17 5 0 -4 7 1 15 12 8
10 15 15 15 10 0 -5 11 1 24 13 15 14 26 19 31 12 4 -8 12 -8 26 -1 11 6 17
15 14 20 -3 5 -1 11 4 14 5 4 12 2 15 -3 4 -5 -22 -31 -56 -57 -35 -26 -87
-70 -117 -98 -29 -28 -48 -41 -42 -29 14 28 14 36 -1 27 -8 -5 -9 -2 -5 10 4
10 3 15 -3 11 -5 -3 -23 4 -40 16 -22 16 -27 25 -18 31 10 6 10 8 1 8 -15 0
-17 36 -3 45 6 3 10 -1 10 -9 0 -8 4 -17 9 -20 13 -8 42 4 36 14 -3 5 3 13 12
19 10 5 17 13 17 18 -2 10 7 33 12 33 2 0 2 -10 0 -22z m69 12 c16 -7 14 -8
-12 -7 -17 1 -29 5 -26 10 5 9 12 8 38 -3z m-235 -10 c13 -9 13 -10 0 -11 -8
-1 -24 0 -35 1 -17 2 -17 0 -5 -15 12 -14 12 -18 0 -25 -8 -5 -22 -4 -32 1
-23 12 -23 17 -1 15 10 0 18 5 18 12 0 11 22 32 35 32 3 0 12 -5 20 -10z
m7323 -20 c9 -11 13 -20 9 -20 -4 0 0 -5 8 -10 13 -8 13 -10 -1 -10 -9 0 -22
7 -29 15 -7 8 -19 15 -26 15 -8 0 -11 6 -8 15 8 21 26 19 47 -5z m-7077 -12
c0 -9 -2 -15 -5 -13 -2 3 -9 1 -15 -4 -7 -6 -11 -2 -12 13 -1 14 4 22 15 22 9
0 17 -8 17 -18z m-136 -8 c-6 -11 -13 -20 -16 -20 -2 0 0 9 6 20 6 11 13 20
16 20 2 0 0 -9 -6 -20z m450 0 c-8 -5 -17 -7 -19 -4 -3 3 1 9 9 14 8 5 17 7
19 4 3 -3 -1 -9 -9 -14z m2728 8 c420 -1 449 -3 242 -9 -521 -15 -1149 -6
-840 12 52 3 101 4 108 2 8 -2 228 -4 490 -5z m-2875 -17 c-3 -13 -10 -18 -21
-13 -15 5 -15 4 -2 -13 11 -14 12 -19 2 -22 -6 -3 -9 -9 -6 -15 4 -6 1 -8 -7
-6 -8 3 -13 13 -12 22 1 16 0 16 -17 -1 -9 -10 -15 -25 -13 -33 4 -11 2 -11
-4 -3 -6 8 -14 9 -23 3 -10 -7 -11 -10 -2 -10 6 0 12 -5 12 -11 0 -6 -9 -8
-22 -4 -16 6 -20 4 -16 -7 8 -19 -36 -60 -55 -52 -12 4 -14 0 -11 -18 4 -18 3
-19 -4 -5 -8 18 -9 18 -22 1 -11 -13 -12 -18 -3 -21 7 -2 9 -11 6 -19 -3 -7
-9 -11 -14 -8 -5 3 -7 10 -4 15 3 5 -1 6 -9 3 -9 -3 -13 -10 -10 -15 3 -5 -3
-9 -12 -9 -20 0 -3 20 97 117 44 42 166 141 176 143 0 0 -1 -9 -4 -19z m274 1
c-9 -2 -15 -7 -12 -12 3 -4 -3 -7 -12 -5 -10 2 -20 4 -23 4 -3 1 6 7 20 15 14
7 30 10 35 7 6 -3 2 -7 -8 -9z m3641 11 c-26 -2 -71 -2 -100 0 -29 2 -8 3 47
3 55 0 79 -1 53 -3z m-291 -9 c-3 -3 -12 -4 -19 -1 -8 3 -5 6 6 6 11 1 17 -2
13 -5z m-3989 -56 c-12 -25 -15 -23 -12 15 2 43 4 46 13 22 5 -11 4 -28 -1
-37z m472 26 c0 -8 -5 -12 -10 -9 -6 4 -8 11 -5 16 9 14 15 11 15 -7z m99 -15
c-9 -5 -15 -4 -18 2 -2 6 3 15 10 20 9 5 15 4 18 -2 2 -6 -3 -15 -10 -20z
m-739 -12 c0 -4 -6 -2 -14 5 -8 7 -12 17 -9 22 5 8 23 -12 23 -27z m136 13 c0
-11 -4 -20 -8 -20 -4 0 -8 5 -8 12 0 6 -9 3 -20 -7 -11 -10 -23 -16 -25 -13
-4 4 39 38 60 48 1 0 1 -9 1 -20z m449 -2 c5 4 5 2 1 -5 -4 -7 -13 -10 -21 -6
-18 6 -19 -8 -2 -26 9 -10 9 -12 0 -7 -7 4 -18 -2 -24 -13 -10 -16 -17 -17
-38 -9 -21 7 -24 7 -13 -3 6 -7 12 -18 12 -23 -1 -16 -30 25 -30 42 0 8 5 10
13 5 20 -13 36 -12 31 2 -8 19 36 57 51 45 7 -5 16 -6 20 -2z m6444 -2 c9 -11
8 -15 -5 -20 -16 -6 -33 8 -34 27 0 12 27 8 39 -7z m-7088 -33 c13 -16 12 -17
-3 -4 -17 13 -22 21 -14 21 2 0 10 -8 17 -17z m669 13 c0 -3 -4 -8 -10 -11 -5
-3 -10 -1 -10 4 0 6 5 11 10 11 6 0 10 -2 10 -4z m61 -19 c-10 -9 -11 -8 -5 6
3 10 9 15 12 12 3 -3 0 -11 -7 -18z m161 -7 c-9 -16 -23 -30 -29 -30 -7 0 -13
-5 -13 -12 0 -6 -3 -9 -6 -5 -8 8 -33 -16 -27 -26 3 -4 12 -2 21 5 12 10 14
10 8 1 -9 -16 6 -17 22 -1 9 9 12 9 12 0 0 -7 -6 -13 -12 -14 -7 0 -17 -2 -23
-2 -5 -1 -16 -5 -24 -10 -9 -6 -12 -5 -7 2 3 6 -3 12 -16 14 -19 3 -13 10 42
55 36 28 66 52 67 52 1 1 -6 -12 -15 -29z m-682 3 c0 -3 -7 -3 -15 1 -8 3 -21
-4 -30 -17 -8 -12 -15 -17 -15 -13 0 18 32 45 46 39 8 -3 14 -7 14 -10z m41
-6 c-10 -9 -11 -8 -5 6 3 10 9 15 12 12 3 -3 0 -11 -7 -18z m2322 -22 c-26
-24 -80 -68 -120 -97 -39 -29 -72 -55 -72 -58 -1 -9 77 -50 81 -42 7 16 88 73
82 58 -3 -9 -9 -16 -14 -16 -4 0 -19 -11 -34 -24 -32 -27 -33 -25 59 -86 33
-22 105 -75 160 -120 l100 -80 83 0 c104 0 148 21 262 128 56 53 61 39 5 -16
-82 -82 -175 -132 -246 -133 -37 0 -48 -3 -34 -8 11 -5 38 -7 60 -5 36 3 37 3
10 -5 l-30 -9 28 -1 c16 0 37 -6 48 -11 16 -9 19 -7 19 10 0 11 5 20 10 20 6
0 10 -4 10 -10 0 -5 5 -10 11 -10 6 0 9 6 6 14 -4 9 0 12 11 9 10 -2 33 3 52
11 35 15 35 15 7 16 -16 0 -26 4 -22 10 3 5 18 8 34 7 20 -1 27 -6 24 -18 -3
-9 0 -19 5 -23 5 -3 9 2 8 11 -1 11 8 16 27 17 25 2 16 -11 -91 -116 l-119
-118 33 -25 c47 -36 98 -52 264 -86 149 -30 248 -56 264 -70 5 -4 -18 -2 -50
6 -32 7 -88 17 -124 21 -36 3 -87 15 -115 24 -52 19 -121 35 -142 33 -7 0 -11
3 -8 7 3 4 -4 10 -15 13 -32 8 -24 -8 36 -72 31 -34 53 -61 49 -61 -22 0 -416
390 -408 403 3 5 1 7 -5 3 -6 -3 -13 -2 -17 4 -3 5 2 11 12 11 16 1 15 2 -2 6
-11 3 -67 49 -126 102 -58 53 -145 123 -193 155 -47 33 -85 63 -84 67 2 4 29
27 60 51 31 23 84 67 118 96 74 64 100 69 33 7z m-2463 31 c0 -2 -8 -10 -17
-17 -16 -13 -17 -12 -4 4 13 16 21 21 21 13z m14 -32 c3 -8 2 -12 -4 -9 -6 3
-10 10 -10 16 0 14 7 11 14 -7z m7186 -5 c0 -5 -4 -9 -10 -9 -5 0 -10 7 -10
16 0 8 5 12 10 9 6 -3 10 -10 10 -16z m-7043 -4 c0 -8 -4 -15 -9 -15 -10 0
-11 14 -1 23 9 10 10 9 10 -8z m-93 -17 c-3 -4 -9 -8 -15 -8 -5 0 -9 4 -9 8 0
5 7 9 15 9 8 0 12 -4 9 -9z m-287 -53 c-49 -54 -78 -77 -41 -32 39 47 78 87
85 87 4 0 -16 -25 -44 -55z m203 20 c-4 -19 -4 -35 0 -35 5 0 6 -9 3 -20 -4
-16 -2 -19 11 -14 9 3 16 10 16 15 0 6 6 4 14 -3 18 -17 2 -27 -39 -23 -41 4
-40 4 -27 17 17 17 15 27 -5 24 -28 -5 -56 9 -59 27 -1 10 2 17 8 17 6 0 7 -8
3 -17 -5 -14 -3 -15 6 -6 9 9 15 8 27 -3 11 -11 18 -12 26 -4 8 8 7 13 -4 20
-10 7 -11 10 -2 10 6 0 12 7 12 15 0 8 4 15 9 15 5 0 5 -15 1 -35z m432 26
c-8 -4 -13 -12 -11 -17 1 -5 -6 -11 -17 -13 -19 -3 -19 -3 0 18 11 11 24 21
30 21 6 0 5 -4 -2 -9z m163 -28 c1 -13 -7 -26 -21 -34 -13 -6 -20 -17 -17 -23
3 -6 2 -7 -3 -3 -5 5 -10 13 -10 18 -1 5 -3 11 -4 14 -2 5 -6 18 -9 31 0 4 -8
1 -16 -6 -14 -11 -14 -14 0 -24 13 -9 10 -11 -14 -11 l-30 0 26 27 c20 21 30
25 39 17 8 -6 12 -16 11 -21 -1 -6 4 -13 12 -16 8 -2 11 0 8 6 -4 5 0 15 9 22
12 11 12 15 2 22 -10 8 -10 9 1 6 8 -2 15 -14 16 -25z m385 17 c0 -5 -5 -10
-11 -10 -5 0 -7 5 -4 10 3 6 8 10 11 10 2 0 4 -4 4 -10z m1870 0 c0 -6 -25 -9
-57 -9 -48 1 -53 3 -28 9 45 11 85 11 85 0z m77 -6 c-3 -3 -12 -4 -19 -1 -8 3
-5 6 6 6 11 1 17 -2 13 -5z m131 -1 c-16 -2 -40 -2 -55 0 -16 2 -3 4 27 4 30
0 43 -2 28 -4z m-3022 -30 c-10 -10 -19 5 -10 18 6 11 8 11 12 0 2 -7 1 -15
-2 -18z m104 12 c0 -1 -9 -5 -20 -8 -12 -3 -20 0 -20 8 0 8 8 11 20 8 11 -3
20 -7 20 -8z m535 5 c-3 -5 -2 -10 3 -10 5 0 9 -7 9 -15 0 -8 -4 -15 -9 -15
-4 0 -8 8 -8 18 0 14 -2 15 -10 2 -5 -8 -10 -10 -10 -4 0 5 5 15 12 22 15 15
21 16 13 2z m513 -34 c-8 -18 -18 -26 -29 -23 -13 4 -16 -1 -14 -19 1 -13 -1
-21 -5 -19 -4 3 -13 -2 -20 -10 -7 -8 -16 -13 -20 -10 -5 3 -6 -5 -2 -17 3
-13 1 -19 -6 -15 -5 4 -12 2 -14 -5 -3 -8 -8 -7 -18 4 -13 14 -16 14 -27 -1
-7 -9 -12 -11 -13 -6 0 6 16 28 36 50 19 22 33 34 29 28 -3 -7 -1 -13 4 -13 6
0 12 5 12 10 1 6 2 15 3 20 0 6 6 10 11 11 6 0 15 5 21 10 6 5 18 7 27 3 10
-3 18 2 22 16 4 12 9 19 11 17 3 -2 -1 -17 -8 -31z m178 22 c5 -7 3 -8 -6 -3
-10 6 -12 4 -7 -8 6 -15 -34 -76 -55 -85 -5 -2 -8 -8 -8 -13 0 -6 -5 -15 -10
-22 -6 -7 -18 -21 -26 -32 -9 -11 -4 2 10 29 34 63 32 69 -5 26 -17 -19 -26
-26 -20 -15 9 19 109 135 116 135 2 0 7 -5 11 -12z m-986 -1 c0 -2 -10 -12
-22 -23 l-23 -19 19 23 c18 21 26 27 26 19z m2167 -3 c-3 -3 -12 -4 -19 -1 -8
3 -5 6 6 6 11 1 17 -2 13 -5z m-2377 -14 c0 -5 -5 -10 -11 -10 -5 0 -7 5 -4
10 3 6 8 10 11 10 2 0 4 -4 4 -10z m590 6 c0 -2 -7 -9 -15 -16 -13 -11 -14
-10 -9 4 5 14 24 23 24 12z m2755 -5 c-3 -5 -20 -12 -38 -16 -45 -9 -141 -38
-147 -45 -9 -9 -105 -54 -112 -52 -5 1 -8 -2 -8 -7 0 -5 -8 -12 -17 -15 -10
-3 -1 9 20 28 37 33 162 101 202 109 39 9 106 7 100 -2z m3210 -1 c3 -5 1 -10
-4 -10 -6 0 -11 5 -11 10 0 6 2 10 4 10 3 0 8 -4 11 -10z m-6635 -6 c0 -8 -19
-13 -24 -6 -3 5 1 9 9 9 8 0 15 -2 15 -3z m790 -24 c0 -6 -9 -2 -20 7 -11 10
-20 19 -20 21 0 1 9 -2 20 -8 11 -6 20 -15 20 -20z m1617 10 c1 -11 -2 -22 -6
-25 -7 -3 -8 31 -2 43 3 7 7 0 8 -18z m-1982 -28 c-3 -4 -10 0 -15 8 -8 12
-10 12 -10 1 0 -11 -3 -11 -15 -1 -15 12 -21 3 -16 -24 1 -5 -5 -4 -14 4 -20
17 -4 38 33 42 26 3 51 -17 37 -30z m1015 23 c-7 -8 -10 -21 -7 -29 4 -10 1
-13 -8 -10 -14 6 -30 -29 -20 -46 4 -6 -1 -7 -10 -4 -12 5 -16 2 -13 -12 2
-11 -2 -18 -9 -16 -7 1 -13 -2 -13 -8 0 -5 6 -10 13 -10 7 -1 3 -8 -9 -18 -11
-10 -19 -23 -17 -29 2 -6 -1 -15 -8 -19 -8 -4 -9 -3 -5 4 5 8 1 10 -9 6 -12
-5 -13 -10 -6 -17 14 -14 14 -30 1 -22 -9 5 -11 0 -13 -25 0 -3 -9 -13 -19
-23 -20 -19 -20 -18 -13 5 4 12 13 37 20 54 16 38 142 234 151 234 4 0 1 -7
-6 -15z m94 -46 c-18 -33 -34 -67 -34 -75 0 -8 -9 -23 -19 -33 -11 -11 -17
-22 -14 -24 2 -3 0 -13 -6 -24 -5 -10 -20 -44 -32 -76 -13 -31 -32 -67 -43
-79 -12 -13 -20 -25 -18 -27 1 -3 -4 -6 -12 -7 -13 -2 -13 3 0 39 24 68 100
212 154 292 28 41 52 75 55 75 2 0 -12 -27 -31 -61z m-1745 6 c0 -5 -5 -2 -12
7 -12 15 -14 15 -25 -3 -9 -14 -9 -19 0 -19 6 0 9 -2 6 -5 -3 -3 -13 -3 -22 1
-14 5 -14 9 5 36 20 27 22 28 35 11 7 -10 13 -22 13 -28z m209 -3 c-13 -16
-31 -28 -40 -26 -10 1 -15 -3 -12 -11 3 -7 0 -16 -5 -20 -6 -3 -9 -11 -6 -16
4 -5 1 -9 -5 -9 -7 0 -9 8 -5 20 8 27 -3 44 -19 31 -9 -8 -13 -7 -13 4 0 8 4
12 9 9 4 -3 8 0 8 6 0 6 5 8 13 3 28 -17 86 13 88 46 0 10 2 12 6 3 2 -6 -6
-25 -19 -40z m733 25 c-10 -9 -11 -8 -5 6 3 10 9 15 12 12 3 -3 0 -11 -7 -18z
m119 13 c0 -5 -2 -10 -4 -10 -3 0 -8 5 -11 10 -3 6 -1 10 4 10 6 0 11 -4 11
-10z m-850 -4 c0 -3 -4 -8 -10 -11 -5 -3 -10 -1 -10 4 0 6 5 11 10 11 6 0 10
-2 10 -4z m237 -3 c-4 -3 -2 -13 5 -20 14 -17 -6 -35 -29 -26 -12 5 -12 7 -1
14 7 5 14 13 14 19 2 17 4 20 11 20 3 0 3 -3 0 -7z m273 -5 c0 -9 3 -9 12 0
18 18 28 14 26 -11 -1 -13 -8 -24 -15 -24 -8 0 -9 4 -4 11 6 7 1 11 -15 12
-20 2 -22 -1 -13 -17 8 -15 6 -19 -7 -19 -10 0 -14 5 -10 16 3 8 2 12 -4 9 -6
-3 -10 -16 -10 -27 0 -12 -3 -18 -7 -15 -3 4 -15 -1 -27 -10 -19 -17 -19 -16
2 13 11 17 28 37 36 44 9 7 13 16 10 21 -3 5 2 9 10 9 9 0 16 -5 16 -12z
m-325 -10 c5 4 4 0 -1 -8 -5 -8 -9 -18 -10 -22 -1 -5 -2 -11 -3 -14 0 -3 -6
-2 -11 1 -8 5 -7 12 2 22 11 14 10 15 -12 8 -27 -8 -55 -29 -31 -23 18 4 34
-49 18 -59 -7 -3 -9 -3 -5 2 4 4 -1 20 -11 34 -21 31 -17 51 10 51 12 0 17 4
13 11 -5 8 -1 8 13 0 11 -6 24 -7 28 -3z m-535 -2 c0 -2 -8 -10 -17 -17 -16
-13 -17 -12 -4 4 13 16 21 21 21 13z m420 -15 c0 -5 -9 -7 -20 -4 -12 3 -20 0
-20 -8 0 -7 -3 -10 -6 -6 -3 3 -3 10 1 16 8 13 45 15 45 2z m540 0 c0 -5 -9
-19 -21 -32 l-20 -24 7 25 c4 14 12 28 18 32 14 10 16 10 16 -1z m120 -12 c0
-14 -17 -10 -23 5 -4 10 -1 13 9 9 7 -3 14 -9 14 -14z m97 6 c4 -4 2 -5 -4 -1
-12 6 -18 -10 -14 -36 1 -13 -32 -1 -41 15 -5 10 -6 17 -1 16 19 -3 34 2 29
10 -7 11 21 8 31 -4z m487 0 c-4 -8 -12 -15 -20 -15 -20 0 -17 18 4 23 9 3 18
5 19 6 1 0 0 -6 -3 -14z m5386 -7 c0 -13 -23 -5 -28 10 -2 7 2 10 12 6 9 -3
16 -11 16 -16z m-6851 5 c-4 -23 3 -32 19 -26 9 3 14 3 10 -2 -4 -4 -19 -9
-33 -11 -22 -2 -24 0 -14 12 9 11 8 14 -2 14 -11 0 -11 2 1 10 18 12 20 12 19
3z m4961 -19 c0 -2 -9 0 -20 6 -11 6 -20 13 -20 16 0 2 9 0 20 -6 11 -6 20
-13 20 -16z m-4477 1 c-3 -9 -8 -14 -10 -11 -3 3 -2 9 2 15 9 16 15 13 8 -4z
m1584 -36 c32 -18 69 -41 82 -51 13 -10 28 -15 34 -11 6 3 7 1 3 -5 -4 -7 -2
-13 3 -13 6 -1 14 -2 19 -3 8 -1 66 -43 122 -89 19 -15 41 -32 48 -38 6 -5 12
-6 12 -2 0 4 7 -1 15 -11 8 -11 15 -16 15 -12 0 16 131 -102 305 -274 283
-279 394 -396 358 -375 -18 11 -33 22 -33 26 0 7 -120 126 -179 179 -19 16
-31 30 -26 30 4 0 -5 10 -21 22 -16 13 -30 26 -32 30 -2 5 -10 8 -18 8 -9 0
-12 5 -9 10 3 6 3 10 -2 10 -4 1 -21 12 -38 26 -16 15 -23 23 -15 18 8 -4 -1
8 -20 27 -19 19 -38 33 -43 31 -4 -2 -6 0 -5 5 5 15 -92 112 -169 170 -40 30
-73 59 -73 64 0 6 -4 8 -9 4 -5 -3 -12 -1 -16 5 -3 6 -23 19 -43 29 -20 11
-51 32 -68 48 -17 15 -38 29 -45 31 -8 2 -16 7 -19 11 -3 4 -25 18 -50 32 -25
13 -53 31 -63 40 -10 9 -42 28 -72 43 -56 27 -74 43 -31 26 13 -5 51 -23 83
-41z m4471 4 c8 -14 9 -24 2 -28 -5 -3 -10 1 -10 9 0 9 -5 16 -11 16 -5 0 -7
5 -4 10 3 6 1 10 -4 10 -6 0 -11 7 -11 16 0 13 2 13 13 2 8 -7 19 -23 25 -35z
m-5694 29 c3 -5 -1 -9 -9 -9 -8 0 -12 4 -9 9 3 4 7 8 9 8 2 0 6 -4 9 -8z m606
-6 c0 -2 -16 -17 -35 -35 -40 -36 -44 -31 -15 16 13 22 25 31 35 27 8 -4 15
-7 15 -8z m-1185 -24 c-8 -8 -25 10 -19 20 4 6 9 5 15 -3 4 -7 6 -15 4 -17z
m105 16 c0 -6 -3 -8 -7 -5 -3 4 -12 2 -20 -5 -11 -8 -12 -7 -7 6 7 18 34 22
34 4z m534 -17 c-5 -25 -3 -29 12 -27 11 2 13 1 6 -1 -7 -3 -10 -9 -7 -14 7
-11 -6 -12 -21 -1 -7 4 -8 18 -2 40 11 40 20 42 12 3z m4125 -8 c2 -2 0 -3 -6
-3 -6 0 -21 9 -34 21 l-24 20 30 -17 c17 -10 32 -19 34 -21z m1837 17 c0 -11
-4 -20 -8 -20 -4 0 -8 9 -8 20 0 11 4 20 8 20 4 0 8 -9 8 -20z m-6206 -2 c0
-5 4 -7 9 -4 14 9 7 -22 -8 -37 -10 -10 -12 -8 -9 8 2 11 -3 25 -10 31 -12 9
-12 11 2 11 9 0 16 -4 16 -9z m-157 -10 c9 2 17 -2 17 -8 0 -7 -7 -9 -16 -6
-12 5 -14 1 -10 -17 3 -12 3 -16 0 -9 -3 6 -11 12 -17 12 -7 0 -19 5 -27 10
-13 9 -13 11 0 19 8 5 19 7 25 3 5 -4 18 -5 28 -4z m317 9 c0 -2 -11 -18 -25
-37 -14 -19 -25 -30 -25 -26 0 9 39 66 46 66 2 0 4 -1 4 -3z m320 -25 c3 -2
-2 -3 -10 -2 -26 4 -66 -1 -52 -7 6 -2 12 -9 12 -15 0 -6 -6 -8 -13 -5 -9 3
-12 -5 -12 -29 1 -23 -3 -34 -12 -34 -8 0 -11 -4 -8 -10 3 -5 1 -10 -4 -10 -6
0 -11 -7 -11 -16 0 -8 -4 -12 -10 -9 -6 3 -7 -1 -4 -9 4 -9 1 -16 -6 -16 -9 0
-7 -7 5 -20 11 -12 13 -20 6 -20 -7 0 -10 -4 -6 -9 3 -5 -1 -16 -8 -23 -8 -8
-22 -27 -31 -43 -14 -24 -16 -26 -13 -8 3 13 1 26 -4 29 -5 3 -6 11 -2 17 4 7
6 20 5 30 -2 9 2 17 8 17 6 0 8 -5 4 -12 -4 -7 -3 -8 5 -4 9 6 9 11 -1 24 -11
13 -11 14 1 8 10 -7 12 -3 6 14 -5 16 -4 20 5 15 7 -4 10 -2 9 6 -5 23 12 60
23 53 7 -4 8 -2 4 5 -9 14 41 104 54 96 5 -3 12 -1 15 5 5 8 12 7 23 -2 10 -7
19 -14 22 -16z m-1454 -18 c-3 -8 -10 -12 -16 -9 -7 4 -6 14 2 28 12 24 24 8
14 -19z m939 17 c-2 -5 -16 -11 -30 -13 -13 -3 -22 -1 -19 3 3 5 14 9 25 9 13
0 18 4 13 12 -4 7 -3 8 5 4 6 -4 9 -11 6 -15z m95 15 c0 -2 -8 -10 -17 -17
-16 -13 -17 -12 -4 4 13 16 21 21 21 13z m-550 -21 c-7 -8 -19 -15 -27 -15
-13 0 -13 3 -3 15 7 8 19 15 27 15 13 0 13 -3 3 -15z m-314 -40 c-1 -5 -11
-12 -22 -14 -15 -3 -16 -1 -6 12 10 11 9 17 -1 26 -8 6 -18 7 -22 3 -5 -4 -5
-1 -1 6 6 9 13 8 31 -5 13 -10 23 -22 21 -28z m114 25 c0 -5 -7 -7 -15 -4 -8
4 -15 8 -15 10 0 2 7 4 15 4 8 0 15 -4 15 -10z m6600 -16 c0 -8 7 -26 16 -39
14 -22 14 -25 1 -25 -15 0 -49 69 -40 83 7 11 23 -2 23 -19z m-6313 -11 c-8
-7 -37 9 -31 19 3 5 12 4 20 -3 8 -6 13 -14 11 -16z m7113 -47 c0 -37 -3 -33
-23 29 l-17 50 20 -25 c11 -14 20 -38 20 -54z m-7397 39 c4 -8 3 -16 -1 -19
-4 -3 -9 4 -9 15 -2 23 3 25 10 4z m900 -2 c-4 -10 -14 -23 -22 -30 -14 -10
-13 -11 6 -6 18 4 22 1 20 -16 -1 -15 -8 -21 -27 -22 -17 -1 -19 -3 -7 -6 19
-5 21 -12 7 -33 -9 -13 -11 -13 -20 0 -5 8 -10 10 -10 5 0 -6 5 -16 10 -21 12
-12 3 -44 -12 -44 -5 0 -6 5 -2 12 4 6 3 8 -3 5 -5 -3 -8 -19 -7 -35 2 -30
-29 -61 -41 -42 -3 6 1 10 9 10 9 0 16 5 16 10 0 6 -5 10 -12 10 -9 0 -9 3 -1
11 6 6 9 18 6 25 -3 8 2 16 10 20 9 3 13 12 11 19 -7 16 51 145 65 145 6 0 7
-8 4 -17z m494 -8 c-7 -14 -16 -25 -20 -25 -5 0 -5 -4 -2 -10 3 -5 1 -10 -4
-10 -6 0 -11 -7 -11 -16 0 -9 5 -12 13 -8 7 5 7 2 -2 -10 -8 -9 -23 -22 -34
-28 -17 -9 -19 -8 -13 8 11 31 70 124 77 124 4 0 2 -11 -4 -25z m-1755 -17
c-8 -8 -9 -4 -5 13 4 13 8 18 11 10 2 -7 -1 -18 -6 -23z m185 17 c0 -8 -3 -12
-6 -9 -3 3 -13 -12 -22 -33 l-16 -38 0 33 c0 17 3 30 5 27 3 -3 11 4 19 15 17
24 20 25 20 5z m143 -5 c-6 -11 -12 -20 -15 -20 -2 0 -11 -3 -21 -7 -13 -5
-15 -3 -8 8 5 8 9 17 10 22 1 4 2 9 3 12 0 3 10 5 21 5 18 0 19 -3 10 -20z
m90 0 c0 -5 -7 -10 -15 -10 -8 0 -15 5 -15 10 0 6 7 10 15 10 8 0 15 -4 15
-10z m585 -3 c11 0 29 4 40 8 19 8 19 8 3 -8 -9 -9 -22 -17 -28 -17 -6 0 -9
-4 -5 -9 3 -5 1 -12 -5 -16 -5 -3 -11 2 -11 12 -1 17 -2 17 -6 1 -5 -21 -10
-22 -27 -5 -19 18 -16 50 3 41 9 -4 25 -7 36 -7z m-370 -16 c3 -5 0 -13 -6
-17 -7 -4 -9 -3 -5 4 3 5 0 13 -6 15 -9 4 -10 6 -1 6 6 1 14 -3 18 -8z m-44
-34 c-10 -9 -11 -8 -5 6 3 10 9 15 12 12 3 -3 0 -11 -7 -18z m2677 13 c-2 -19
4 -30 15 -30 7 0 13 -10 14 -22 0 -13 -1 -18 -4 -11 -2 7 -12 9 -21 6 -15 -4
-15 -3 -2 6 14 10 7 16 -13 12 -5 -1 -5 4 -1 10 4 7 -1 18 -11 25 -16 12 -16
13 3 11 11 0 20 -4 20 -7z m66 1 c4 -5 -3 -7 -14 -4 -23 6 -26 13 -6 13 8 0
17 -4 20 -9z m-2181 -18 c-3 -7 -9 -13 -13 -13 -4 0 -12 6 -18 13 -8 9 -5 12
13 12 14 0 21 -5 18 -12z m6542 7 c3 -5 1 -10 -4 -10 -6 0 -11 5 -11 10 0 6 2
10 4 10 3 0 8 -4 11 -10z m-695 -21 c0 -6 -4 -7 -10 -4 -5 3 -10 11 -10 16 0
6 5 7 10 4 6 -3 10 -11 10 -16z m-6884 -20 c3 -6 1 -16 -5 -22 -9 -9 -14 -8
-21 3 -9 15 -4 30 10 30 5 0 12 -5 16 -11z m2228 -1 c4 4 6 0 4 -8 -1 -8 4
-15 12 -15 29 -2 51 -18 46 -32 -3 -8 -1 -11 4 -8 14 9 12 -19 -2 -33 -10 -10
-10 -15 1 -22 11 -6 5 -13 -25 -27 -21 -10 -40 -21 -42 -25 -2 -4 -10 -4 -18
-1 -8 3 -14 -1 -14 -8 -1 -10 -5 -8 -15 5 -7 10 -18 15 -24 11 -7 -4 -8 1 -4
12 6 16 5 17 -12 3 -10 -8 -16 -10 -12 -4 12 20 16 64 5 64 -7 0 -6 5 1 14 6
8 11 18 10 22 -4 21 2 34 15 34 7 0 19 7 26 15 9 11 16 12 25 5 6 -5 15 -6 19
-2z m-1761 -33 c-3 -9 -8 -14 -10 -11 -3 3 -2 9 2 15 9 16 15 13 8 -4z m1104
-17 c2 -18 0 -20 -7 -8 -12 18 -13 30 -2 30 4 0 9 -10 9 -22z m1603 12 c11 -7
5 -10 -22 -10 -21 0 -38 5 -38 10 0 13 40 13 60 0z m4968 -11 c3 -12 2 -12 -6
0 -6 8 -15 10 -22 6 -9 -5 -11 -4 -6 4 10 15 28 10 34 -10z m-7338 1 c0 -5 -2
-10 -4 -10 -3 0 -8 5 -11 10 -3 6 -1 10 4 10 6 0 11 -4 11 -10z m-756 -35 c-4
-8 -8 -15 -10 -15 -2 0 -4 7 -4 15 0 8 4 15 10 15 5 0 7 -7 4 -15z m-94 -5 c0
-5 -4 -10 -10 -10 -5 0 -10 5 -10 10 0 6 5 10 10 10 6 0 10 -4 10 -10z m643
-5 c4 -8 2 -17 -2 -20 -5 -2 -11 4 -14 15 -6 23 8 27 16 5z m258 2 c-1 -12
-15 -9 -19 4 -3 6 1 10 8 8 6 -3 11 -8 11 -12z m7254 3 c-3 -5 -11 -10 -16
-10 -6 0 -7 5 -4 10 3 6 11 10 16 10 6 0 7 -4 4 -10z m-7978 -47 c3 -7 -3 -9
-16 -6 -12 3 -21 10 -21 15 0 13 32 6 37 -9z m1313 3 c0 -2 -6 -9 -13 -15 -10
-8 -14 -7 -14 4 0 8 6 15 14 15 7 0 13 -2 13 -4z m1104 -29 c-6 -16 23 -43 33
-33 4 4 1 11 -7 16 -8 6 -11 10 -7 10 13 0 51 -22 59 -33 3 -6 14 -12 23 -13
9 -1 24 -11 33 -21 9 -11 34 -29 55 -42 20 -13 34 -27 31 -33 -5 -7 -2 -8 5
-4 8 5 14 0 18 -13 3 -11 14 -23 24 -26 11 -4 24 -15 29 -26 6 -10 16 -19 23
-19 24 -1 67 -48 60 -67 -6 -16 -5 -17 12 -3 16 14 17 13 11 -7 -4 -12 -2 -24
3 -27 6 -4 7 -14 4 -23 -5 -14 -8 -13 -14 5 -6 15 -13 19 -30 15 -16 -5 -20
-3 -14 6 10 18 -43 71 -72 71 -15 0 -23 6 -24 18 -1 16 -2 16 -6 0 -2 -10 -11
-18 -19 -18 -8 0 -13 4 -10 8 3 5 -1 9 -8 9 -8 0 -12 -10 -10 -24 1 -13 -2
-21 -7 -17 -5 3 -7 10 -4 15 10 16 -11 10 -38 -11 -14 -11 -30 -20 -37 -20 -6
0 -8 -5 -4 -11 4 -7 -1 -9 -12 -7 -11 2 -18 10 -16 17 1 7 -2 10 -7 6 -7 -4
-7 -15 -1 -31 15 -39 13 -48 -26 -90 -19 -21 -32 -33 -28 -25 5 11 3 13 -9 8
-10 -3 -17 -2 -17 3 0 6 9 10 19 10 20 0 51 35 51 57 0 7 -8 31 -17 54 -16 36
-21 40 -48 36 -38 -5 -61 15 -40 37 8 8 11 17 6 20 -5 3 -11 -1 -15 -9 -3 -8
-11 -15 -17 -15 -7 0 -5 8 6 20 24 27 8 44 -42 45 -38 0 -55 18 -28 29 9 3 13
2 10 -3 -3 -5 -1 -13 5 -16 7 -4 10 6 8 29 -1 26 5 43 22 63 14 15 17 21 6 13
-10 -8 -23 -15 -30 -16 -6 -1 -30 -7 -53 -12 l-43 -10 17 29 c10 17 19 25 21
19 3 -7 11 -5 23 6 10 9 19 14 19 11 0 -3 12 0 27 8 19 10 32 11 46 3 13 -7
17 -7 13 0 -3 6 2 12 11 15 10 2 3 4 -15 4 -18 0 -35 3 -38 6 -3 3 8 5 25 5
17 -1 34 2 38 5 11 12 23 7 17 -6z m-97 -3 c-3 -3 -12 -4 -19 -1 -8 3 -5 6 6
6 11 1 17 -2 13 -5z m-1779 -11 c-10 -2 -18 -9 -18 -15 0 -6 -3 -9 -6 -5 -10
10 6 27 24 26 15 -1 15 -2 0 -6z m1697 -3 c3 -5 1 -10 -4 -10 -6 0 -11 5 -11
10 0 6 2 10 4 10 3 0 8 -4 11 -10z m-2283 -15 c0 -5 -5 -11 -10 -13 -5 -1 -9
4 -9 13 0 9 4 14 9 13 5 -2 10 -8 10 -13z m502 -1 c9 -24 2 -26 -12 -4 -7 11
-8 20 -3 20 5 0 12 -7 15 -16z m-487 -41 c-15 -18 -17 -22 -17 -44 0 -8 -5 -7
-15 1 -14 12 -13 16 6 37 26 26 50 32 26 6z m2233 2 c-7 -8 -17 -15 -23 -15
-6 0 -2 7 9 15 25 19 30 19 14 0z m5410 -91 c0 -8 -5 -12 -10 -9 -6 4 -8 11
-5 16 9 14 15 11 15 -7z m-7805 -54 c3 -5 1 -10 -4 -10 -6 0 -11 5 -11 10 0 6
2 10 4 10 3 0 8 -4 11 -10z m2545 6 c0 -11 -19 -15 -25 -6 -3 5 1 10 9 10 9 0
16 -2 16 -4z m5180 -10 c0 -3 -4 -8 -10 -11 -5 -3 -10 -1 -10 4 0 6 5 11 10
11 6 0 10 -2 10 -4z m-7490 -16 c0 -5 -2 -10 -4 -10 -3 0 -8 5 -11 10 -3 6 -1
10 4 10 6 0 11 -4 11 -10z m40 -25 c0 -8 -4 -15 -10 -15 -5 0 -7 7 -4 15 4 8
8 15 10 15 2 0 4 -7 4 -15z m-227 -20 c-4 -15 -36 -12 -41 3 -3 9 3 13 19 10
13 -1 23 -7 22 -13z m2872 -15 c-3 -5 -1 -10 5 -10 7 0 6 -5 -2 -14 -9 -9 -15
-10 -20 -3 -8 13 1 37 14 37 5 0 6 -4 3 -10z m-274 -43 c-10 -9 -11 -8 -5 6 3
10 9 15 12 12 3 -3 0 -11 -7 -18z m406 -3 c18 -18 24 -28 16 -31 -7 -3 -13 -9
-13 -14 0 -4 8 -5 18 -2 15 6 16 5 2 -11 -8 -11 -16 -14 -18 -7 -2 6 -8 9 -13
5 -12 -7 -11 3 1 26 9 16 8 18 -5 14 -11 -5 -13 -2 -9 10 3 9 1 16 -5 16 -6 0
-11 5 -11 10 0 15 6 12 37 -16z m868 16 c7 -12 -2 -12 -30 0 -19 8 -19 9 2 9
12 1 25 -3 28 -9z m42 -16 c-3 -3 -12 -4 -19 -1 -8 3 -5 6 6 6 11 1 17 -2 13
-5z m-1341 -18 c25 3 44 1 44 -4 0 -14 -92 -20 -109 -8 -11 8 -13 8 -7 -1 4
-8 1 -13 -8 -13 -9 0 -19 0 -23 -1 -4 0 -9 4 -11 10 -4 12 61 31 66 20 2 -5
23 -6 48 -3z m1434 -13 c30 -11 31 -12 6 -8 -16 4 -43 13 -60 20 -23 11 -25
13 -6 8 14 -3 41 -12 60 -20z m-1560 -3 c0 -5 -4 -10 -10 -10 -5 0 -10 5 -10
10 0 6 5 10 10 10 6 0 10 -4 10 -10z m-53 -6 c-3 -3 -12 -4 -19 -1 -8 3 -5 6
6 6 11 1 17 -2 13 -5z m493 -14 c0 -5 -2 -10 -4 -10 -3 0 -8 5 -11 10 -3 6 -1
10 4 10 6 0 11 -4 11 -10z m1443 -37 c-7 -2 -21 -2 -30 0 -10 3 -4 5 12 5 17
0 24 -2 18 -5z m817 -3 c26 -4 -38 -5 -150 -2 -107 2 -197 6 -199 8 -9 8 305
2 349 -6z m-2610 -4 c0 -2 -8 -10 -17 -17 -16 -13 -17 -12 -4 4 13 16 21 21
21 13z m360 -11 c0 -2 -6 -8 -13 -14 -10 -8 -14 -7 -14 2 0 8 6 14 14 14 7 0
13 -1 13 -2z m200 -30 c8 5 11 4 6 -3 -7 -12 28 -35 38 -24 4 3 4 -2 0 -13 -7
-17 -6 -18 8 -7 14 11 16 11 14 0 -1 -7 -5 -19 -10 -26 -7 -12 -4 -12 15 -2
13 7 21 9 17 5 -4 -4 -3 -16 3 -27 21 -39 -4 -37 -36 4 -19 23 -32 45 -29 49
2 4 -8 7 -23 6 -20 -1 -27 2 -25 13 3 11 -2 9 -16 -5 -18 -19 -18 -20 0 -23
10 -2 18 -7 18 -12 0 -6 -10 -6 -24 0 -26 10 -86 11 -86 1 0 -3 -14 -7 -30 -8
-21 -2 -30 2 -30 12 0 9 10 15 23 16 12 0 36 3 52 5 17 3 35 6 42 6 7 1 17 14
24 30 10 25 13 27 24 12 7 -11 17 -14 25 -9z m-190 1 c0 -2 -7 -9 -15 -16 -13
-11 -14 -10 -9 4 5 14 24 23 24 12z m2498 -37 c28 -17 52 -33 52 -35 0 -3 -24
8 -53 24 -29 16 -66 34 -82 40 l-30 12 30 -6 c17 -3 54 -19 83 -35z m-2802
-29 c4 -12 9 -9 24 10 11 14 20 20 20 13 0 -6 -5 -15 -10 -18 -6 -4 -8 -10 -5
-15 3 -5 -4 -7 -15 -5 -11 2 -20 0 -20 -5 0 -12 -69 -64 -76 -58 -3 3 11 16
30 28 29 17 35 27 34 53 -1 45 4 67 9 37 2 -14 6 -32 9 -40z m51 54 c-3 -3
-12 -4 -19 -1 -8 3 -5 6 6 6 11 1 17 -2 13 -5z m283 2 c0 -2 -7 -7 -16 -10 -8
-3 -12 -2 -9 4 6 10 25 14 25 6z m184 -55 c3 -5 0 -11 -8 -14 -15 -6 -26 1
-26 15 0 11 27 10 34 -1z m-107 -14 c0 -7 -9 -14 -20 -14 -19 -2 -19 -2 -1 12
11 8 19 15 20 15 0 0 1 -6 1 -13z m28 -7 c3 -5 1 -10 -4 -10 -6 0 -11 5 -11
10 0 6 2 10 4 10 3 0 8 -4 11 -10z m386 -17 c13 -16 12 -17 -3 -4 -17 13 -22
21 -14 21 2 0 10 -8 17 -17z m-441 -27 c0 -7 9 -16 21 -19 15 -4 19 -2 15 8
-3 8 0 17 6 21 6 4 8 3 4 -4 -3 -5 0 -13 6 -16 11 -5 11 -7 0 -12 -6 -3 -9
-10 -6 -16 4 -6 12 -1 19 12 8 15 15 19 19 11 4 -6 2 -11 -4 -11 -6 0 -8 -5
-5 -10 4 -6 11 -7 17 -4 7 4 8 2 4 -4 -4 -6 -13 -9 -20 -6 -8 3 -17 1 -21 -5
-3 -6 1 -11 9 -11 22 0 20 -13 -5 -28 -12 -8 -18 -19 -15 -28 3 -8 -1 -14 -9
-14 -8 0 -15 4 -15 10 0 5 -7 7 -15 4 -20 -8 -20 29 0 46 12 10 13 16 4 26
-14 17 -33 19 -23 2 4 -7 3 -8 -5 -4 -9 6 -9 11 0 22 7 8 7 14 1 14 -5 0 -15
-7 -22 -15 -14 -17 -30 -20 -30 -4 0 5 3 8 8 6 4 -3 16 6 27 19 23 27 35 30
35 10z m-360 -10 c0 -2 -9 -11 -19 -21 -19 -16 -20 -16 -18 2 0 11 9 20 19 20
10 1 18 0 18 -1z m-2362 -24 c2 -7 -2 -10 -12 -6 -9 3 -16 11 -16 16 0 13 23
5 28 -10z m2507 8 c3 -5 1 -10 -4 -10 -6 0 -11 5 -11 10 0 6 2 10 4 10 3 0 8
-4 11 -10z m-35 -10 c0 -5 -6 -10 -14 -10 -11 0 -13 -7 -6 -29 4 -16 7 -31 7
-33 -1 -2 3 3 10 11 10 11 12 10 10 -8 -1 -11 -5 -21 -10 -21 -4 0 -5 -5 -2
-11 5 -7 0 -6 -11 1 -24 15 -26 86 -4 100 19 12 20 12 20 0z m-183 -16 c-3 -3
6 -17 20 -30 14 -13 22 -24 16 -24 -5 0 -22 14 -38 30 -24 26 -26 30 -10 30
10 0 16 -3 12 -6z m320 0 c-3 -3 -12 -4 -19 -1 -8 3 -5 6 6 6 11 1 17 -2 13
-5z m-357 -19 c0 -2 -9 -3 -19 -2 -11 0 -18 5 -15 9 4 6 34 0 34 -7z m124 0
c3 -9 -3 -19 -17 -25 -21 -11 -21 -11 -3 4 11 9 14 16 8 16 -7 0 -12 5 -12 10
0 15 17 12 24 -5z m462 -32 c-3 -4 -6 0 -6 8 0 11 -2 11 -10 -1 -8 -13 -10
-13 -10 1 0 24 13 32 23 14 5 -9 6 -19 3 -22z m74 27 c0 -6 -11 -8 -27 -4 -40
10 -41 14 -5 14 18 0 32 -5 32 -10z m120 -31 c0 -7 8 -21 18 -32 16 -19 16
-20 -3 -10 -11 6 -25 8 -32 6 -20 -7 -35 33 -21 56 9 16 14 17 25 6 7 -8 13
-19 13 -26z m-814 2 c0 -11 -4 -17 -8 -15 -4 3 -8 12 -8 20 0 8 4 14 8 14 4 0
8 -9 8 -19z m697 -20 c-2 -5 3 -8 11 -5 7 3 16 -2 20 -12 5 -13 4 -14 -7 -6
-8 7 -18 7 -27 2 -8 -5 -19 -6 -25 -3 -5 4 -7 2 -2 -2 12 -13 45 -18 135 -18
94 0 100 -14 7 -18 -54 -2 -130 7 -146 17 -4 2 -9 -2 -12 -10 -8 -19 19 -29
71 -27 24 2 42 -2 42 -8 0 -6 6 -11 14 -11 8 0 18 -5 22 -12 4 -7 3 -8 -4 -4
-7 4 -12 2 -12 -4 0 -6 7 -13 15 -16 8 -4 15 -15 15 -26 0 -16 -9 -11 -45 26
-24 25 -49 46 -56 46 -6 0 -31 -20 -55 -44 -36 -37 -41 -45 -26 -51 11 -5 13
-9 5 -12 -7 -2 -22 1 -34 7 -19 11 -26 6 -72 -42 -44 -46 -48 -48 -31 -18 11
19 36 45 55 57 42 28 47 33 81 71 23 26 25 32 13 42 -8 7 -12 17 -8 23 4 7 0
8 -13 2 -10 -4 -29 -8 -41 -9 -27 -1 -43 -16 -17 -16 17 -1 17 -2 2 -10 -20
-12 -51 -2 -41 13 4 6 0 8 -10 4 -18 -7 -19 -6 -21 36 -2 25 0 27 11 12 19
-27 63 -12 57 18 -4 23 -2 24 64 21 41 -1 66 -6 65 -13z m-508 -21 c-17 -18
-17 -20 -2 -14 10 3 17 1 17 -6 0 -6 5 -8 10 -5 6 4 8 10 5 15 -3 5 -1 11 5
15 5 3 10 1 10 -6 0 -6 8 -9 20 -6 11 3 18 1 14 -4 -3 -5 -14 -9 -25 -9 -10 0
-19 -4 -19 -10 0 -11 -91 -82 -98 -75 -3 2 1 11 7 19 9 10 9 16 1 21 -16 10 8
35 26 28 11 -4 12 -9 5 -16 -6 -6 -11 -16 -11 -21 1 -6 9 -1 19 11 10 12 22
19 26 15 5 -4 5 -1 1 6 -4 7 -10 10 -14 8 -4 -2 -13 2 -19 10 -10 10 -9 16 9
28 30 22 35 20 13 -4z m123 3 c-11 -3 -15 -10 -11 -21 5 -13 3 -14 -7 -5 -15
14 -5 33 18 32 16 -1 16 -2 0 -6z m160 -38 c-3 -3 -9 2 -12 12 -6 14 -5 15 5
6 7 -7 10 -15 7 -18z m-111 -5 c10 -12 8 -19 -10 -33 -12 -10 -16 -16 -9 -12
15 8 15 0 2 -26 -11 -20 -40 -26 -40 -9 0 6 7 22 16 36 13 19 14 28 5 37 -6 6
-11 14 -11 18 0 12 35 4 47 -11z m263 -20 c0 -5 -2 -10 -4 -10 -3 0 -8 5 -11
10 -3 6 -1 10 4 10 6 0 11 -4 11 -10z m-175 -10 c3 -5 -3 -10 -15 -10 -12 0
-18 5 -15 10 3 6 10 10 15 10 5 0 12 -4 15 -10z m30 -20 c-10 -12 -31 -20 -48
-20 -36 0 -32 9 6 12 15 1 29 8 31 15 3 7 11 13 17 13 7 0 5 -8 -6 -20z m33
-20 c-12 -16 -26 -26 -31 -23 -6 4 -8 0 -4 -11 4 -9 3 -14 -2 -11 -5 3 -12 -3
-16 -12 -6 -19 -63 -68 -70 -62 -2 3 22 32 54 67 32 34 56 62 53 62 -2 0 1 7
8 15 23 27 30 4 8 -25z m-433 -7 c-4 -16 -8 -39 -9 -52 0 -13 -7 -26 -15 -29
-10 -3 -11 0 -5 9 5 8 9 19 9 24 1 21 17 75 22 75 3 0 2 -12 -2 -27z m21 -11
c-17 -16 -18 -16 -5 5 7 12 15 20 18 17 3 -2 -3 -12 -13 -22z m-306 4 c0 -8
-9 -24 -20 -37 l-19 -24 17 37 c19 41 22 45 22 24z m460 10 c0 -2 -11 -11 -25
-20 -14 -9 -25 -12 -25 -6 0 6 10 15 23 20 27 11 27 11 27 6z m130 0 c0 -2 -7
-7 -16 -10 -8 -3 -12 -2 -9 4 6 10 25 14 25 6z m-40 -30 c0 -2 -8 -10 -17 -17
-16 -13 -17 -12 -4 4 13 16 21 21 21 13z m3575 -16 c3 -5 1 -10 -4 -10 -6 0
-11 5 -11 10 0 6 2 10 4 10 3 0 8 -4 11 -10z m-3444 -33 c-10 -9 -11 -8 -5 6
3 10 9 15 12 12 3 -3 0 -11 -7 -18z m364 -15 c-8 -8 -25 10 -25 26 0 13 2 13
14 -4 8 -10 13 -21 11 -22z m-1170 -12 c-3 -5 -12 -10 -18 -10 -7 0 -6 4 3 10
19 12 23 12 15 0z m645 0 c0 -5 8 -10 18 -11 11 0 12 -2 4 -6 -7 -3 -20 1 -29
9 -14 11 -16 11 -10 -4 4 -12 -11 -29 -59 -64 -46 -34 -63 -52 -59 -63 5 -13
4 -14 -7 -3 -11 11 -7 19 22 43 19 17 47 38 63 47 15 9 27 22 27 30 0 8 -5 10
-12 6 -9 -5 -9 -2 1 9 15 19 41 23 41 7z m-150 -24 c0 -2 -8 -10 -17 -17 -16
-13 -17 -12 -4 4 13 16 21 21 21 13z m191 -29 c-10 -9 -11 -8 -5 6 3 10 9 15
12 12 3 -3 0 -11 -7 -18z m94 -7 c7 -12 -2 -12 -30 0 -19 8 -19 9 2 9 12 1 25
-3 28 -9z m3314 -21 c-6 -12 -9 -29 -6 -39 6 -23 -19 -61 -36 -55 -6 2 -31 9
-54 15 -38 9 -43 14 -43 39 0 38 37 55 123 60 25 1 27 -1 16 -20z m-5790 -10
c-22 -13 -31 -11 -17 5 7 8 17 12 22 9 4 -3 2 -9 -5 -14z m2346 3 c-3 -3 -11
0 -18 7 -9 10 -8 11 6 5 10 -3 15 -9 12 -12z m-160 -61 c3 -5 2 -12 -3 -15 -5
-3 -9 1 -9 9 0 17 3 19 12 6z m3389 -20 c3 -4 3 -11 0 -14 -8 -8 -34 3 -34 14
0 11 27 12 34 0z m2291 -1 c-3 -5 -12 -10 -18 -10 -7 0 -6 4 3 10 19 12 23 12
15 0z m-5725 -34 c0 -2 -7 -9 -15 -16 -13 -11 -14 -10 -9 4 5 14 24 23 24 12z
m-271 -19 c-2 -1 -15 -11 -29 -22 l-25 -20 19 23 c11 12 24 22 29 22 6 0 8 -1
6 -3z m3981 -80 c0 -2 -10 -12 -22 -23 l-23 -19 19 23 c18 21 26 27 26 19z
m-6192 -35 c6 -18 -15 -14 -22 4 -4 10 -1 14 6 12 6 -2 14 -10 16 -16z m67
-62 c3 -5 2 -10 -4 -10 -5 0 -13 5 -16 10 -3 6 -2 10 4 10 5 0 13 -4 16 -10z
m55 -85 c0 -8 -4 -15 -10 -15 -5 0 -7 7 -4 15 4 8 8 15 10 15 2 0 4 -7 4 -15z
m5820 -49 c0 -2 -7 -7 -16 -10 -8 -3 -12 -2 -9 4 6 10 25 14 25 6z m-5755 -16
c3 -5 -1 -10 -10 -10 -9 0 -13 5 -10 10 3 6 8 10 10 10 2 0 7 -4 10 -10z
m-290 -470 c3 -6 -1 -7 -9 -4 -18 7 -21 14 -7 14 6 0 13 -4 16 -10z m3991
-569 c-8 -12 -46 -21 -46 -11 0 9 18 18 38 19 7 1 11 -3 8 -8z"/>
<path d="M4734 8858 l-19 -23 23 19 c21 18 27 26 19 26 -2 0 -12 -10 -23 -22z"/>
<path d="M5921 8284 c0 -11 3 -14 6 -6 3 7 2 16 -1 19 -3 4 -6 -2 -5 -13z"/>
<path d="M6020 8155 c-19 -14 -30 -25 -25 -25 6 0 24 11 40 25 39 31 30 31
-15 0z"/>
<path d="M5163 7897 c-17 -23 -2 -60 21 -51 8 3 17 0 22 -7 5 -8 3 -10 -7 -4
-8 5 -5 -2 6 -14 11 -12 21 -18 23 -13 2 6 12 8 22 5 18 -5 24 -15 21 -35 0
-4 5 -5 13 -2 8 3 17 1 21 -5 3 -6 11 -11 18 -11 6 0 2 6 -8 14 -18 13 -17 13
9 11 22 -3 25 -1 16 10 -8 10 -18 11 -34 5 -17 -6 -23 -5 -23 6 0 8 3 12 5 9
3 -3 11 0 19 6 8 8 17 8 26 2 6 -6 20 -13 30 -16 15 -6 16 -4 7 13 -6 11 -7
20 -2 20 11 0 13 38 1 45 -5 4 -12 -1 -15 -9 -3 -9 -10 -13 -15 -10 -5 3 -9 0
-9 -5 0 -6 5 -11 10 -11 6 0 10 -4 10 -9 0 -15 -49 -6 -71 12 -22 19 -39 23
-21 5 14 -14 16 -38 3 -38 -5 0 -12 11 -15 25 -4 16 -11 22 -21 19 -11 -5 -14
-1 -9 12 3 11 2 15 -3 9 -4 -5 -17 -17 -27 -25 -18 -13 -19 -13 -11 0 19 31 8
65 -12 37z m77 -56 c0 -5 -7 -11 -14 -14 -10 -4 -13 -1 -9 9 6 15 23 19 23 5z"/>
<path d="M5355 7751 c-3 -5 -2 -12 3 -15 5 -3 9 1 9 9 0 17 -3 19 -12 6z"/>
<path d="M5565 7500 c-3 -5 -1 -10 4 -10 6 0 11 5 11 10 0 6 -2 10 -4 10 -3 0
-8 -4 -11 -10z"/>
<path d="M5920 7469 c0 -5 -4 -7 -10 -4 -5 3 -10 1 -10 -4 0 -16 16 -13 30 4
9 10 9 15 1 15 -6 0 -11 -5 -11 -11z"/>
<path d="M5550 7455 c0 -8 5 -15 10 -15 6 0 10 7 10 15 0 8 -4 15 -10 15 -5 0
-10 -7 -10 -15z"/>
<path d="M5587 7439 c7 -7 15 -10 18 -7 3 3 -2 9 -12 12 -14 6 -15 5 -6 -5z"/>
<path d="M7374 7555 c0 -49 1 -71 3 -48 2 23 2 64 0 90 -2 26 -3 8 -3 -42z"/>
<path d="M4207 7769 c7 -7 15 -10 18 -7 3 3 -2 9 -12 12 -14 6 -15 5 -6 -5z"/>
<path d="M5930 6080 c0 -5 5 -10 11 -10 5 0 7 5 4 10 -3 6 -8 10 -11 10 -2 0
-4 -4 -4 -10z"/>
<path d="M1769 3333 c-13 -16 -12 -17 4 -4 16 13 21 21 13 21 -2 0 -10 -8 -17
-17z"/>
<path d="M1623 3295 c0 -8 4 -12 9 -9 5 3 6 10 3 15 -9 13 -12 11 -12 -6z"/>
<path d="M1756 3214 c-5 -14 -4 -15 9 -4 17 14 19 20 6 20 -5 0 -12 -7 -15
-16z"/>
<path d="M4405 2691 c-3 -5 -2 -12 3 -15 5 -3 9 1 9 9 0 17 -3 19 -12 6z"/>
<path d="M2480 3055 c-7 -9 -8 -15 -2 -15 5 0 12 7 16 15 3 8 4 15 2 15 -2 0
-9 -7 -16 -15z"/>
<path d="M2720 3095 c-7 -9 -8 -15 -2 -15 5 0 12 7 16 15 3 8 4 15 2 15 -2 0
-9 -7 -16 -15z"/>
<path d="M3262 2807 c-5 -7 -12 -21 -15 -32 -6 -18 -6 -18 6 -4 7 10 23 15 40
13 33 -3 34 -1 3 19 -19 13 -26 13 -34 4z"/>
<path d="M3548 2553 c7 -3 16 -2 19 1 4 3 -2 6 -13 5 -11 0 -14 -3 -6 -6z"/>
<path d="M4230 2096 c0 -2 8 -10 18 -17 15 -13 16 -12 3 4 -13 16 -21 21 -21
13z"/>
<path d="M4074 2015 c21 -16 32 -13 21 4 -3 6 -14 11 -23 11 -15 -1 -15 -2 2
-15z"/>
<path d="M4080 1965 c0 -8 2 -15 4 -15 2 0 6 7 10 15 3 8 1 15 -4 15 -6 0 -10
-7 -10 -15z"/>
<path d="M4178 1893 c7 -3 16 -2 19 1 4 3 -2 6 -13 5 -11 0 -14 -3 -6 -6z"/>
</g>
</svg>
